<mxfile host="app.diagrams.net" modified="2023-10-12T03:20:19.281Z" agent="Mozilla/5.0 (Windows NT 10.0; Win64; x64) AppleWebKit/537.36 (KHTML, like Gecko) Chrome/117.0.0.0 Safari/537.36" etag="2OK7JjJmX_eTHnorKR6k" version="22.0.4" type="github" pages="3">
  <diagram name="Page-1" id="lRrWRd2Yvgav42Or2mps">
    <mxGraphModel dx="1050" dy="574" grid="0" gridSize="10" guides="1" tooltips="1" connect="1" arrows="1" fold="1" page="1" pageScale="1" pageWidth="850" pageHeight="1100" math="0" shadow="0">
      <root>
        <mxCell id="0" />
        <mxCell id="1" parent="0" />
        <mxCell id="6XwQYvwcAlZlrGyIBMI2-1" value="Musician" style="shape=table;startSize=30;container=1;collapsible=1;childLayout=tableLayout;fixedRows=1;rowLines=0;fontStyle=1;align=center;resizeLast=1;html=1;" parent="1" vertex="1">
          <mxGeometry x="45" y="96" width="180" height="90" as="geometry" />
        </mxCell>
        <mxCell id="6XwQYvwcAlZlrGyIBMI2-2" value="" style="shape=tableRow;horizontal=0;startSize=0;swimlaneHead=0;swimlaneBody=0;fillColor=none;collapsible=0;dropTarget=0;points=[[0,0.5],[1,0.5]];portConstraint=eastwest;top=0;left=0;right=0;bottom=1;" parent="6XwQYvwcAlZlrGyIBMI2-1" vertex="1">
          <mxGeometry y="30" width="180" height="30" as="geometry" />
        </mxCell>
        <mxCell id="6XwQYvwcAlZlrGyIBMI2-3" value="PK" style="shape=partialRectangle;connectable=0;fillColor=none;top=0;left=0;bottom=0;right=0;fontStyle=1;overflow=hidden;whiteSpace=wrap;html=1;" parent="6XwQYvwcAlZlrGyIBMI2-2" vertex="1">
          <mxGeometry width="30" height="30" as="geometry">
            <mxRectangle width="30" height="30" as="alternateBounds" />
          </mxGeometry>
        </mxCell>
        <mxCell id="6XwQYvwcAlZlrGyIBMI2-4" value="SSN" style="shape=partialRectangle;connectable=0;fillColor=none;top=0;left=0;bottom=0;right=0;align=left;spacingLeft=6;fontStyle=5;overflow=hidden;whiteSpace=wrap;html=1;" parent="6XwQYvwcAlZlrGyIBMI2-2" vertex="1">
          <mxGeometry x="30" width="150" height="30" as="geometry">
            <mxRectangle width="150" height="30" as="alternateBounds" />
          </mxGeometry>
        </mxCell>
        <mxCell id="6XwQYvwcAlZlrGyIBMI2-5" value="" style="shape=tableRow;horizontal=0;startSize=0;swimlaneHead=0;swimlaneBody=0;fillColor=none;collapsible=0;dropTarget=0;points=[[0,0.5],[1,0.5]];portConstraint=eastwest;top=0;left=0;right=0;bottom=0;" parent="6XwQYvwcAlZlrGyIBMI2-1" vertex="1">
          <mxGeometry y="60" width="180" height="30" as="geometry" />
        </mxCell>
        <mxCell id="6XwQYvwcAlZlrGyIBMI2-6" value="" style="shape=partialRectangle;connectable=0;fillColor=none;top=0;left=0;bottom=0;right=0;editable=1;overflow=hidden;whiteSpace=wrap;html=1;" parent="6XwQYvwcAlZlrGyIBMI2-5" vertex="1">
          <mxGeometry width="30" height="30" as="geometry">
            <mxRectangle width="30" height="30" as="alternateBounds" />
          </mxGeometry>
        </mxCell>
        <mxCell id="6XwQYvwcAlZlrGyIBMI2-7" value="Name" style="shape=partialRectangle;connectable=0;fillColor=none;top=0;left=0;bottom=0;right=0;align=left;spacingLeft=6;overflow=hidden;whiteSpace=wrap;html=1;" parent="6XwQYvwcAlZlrGyIBMI2-5" vertex="1">
          <mxGeometry x="30" width="150" height="30" as="geometry">
            <mxRectangle width="150" height="30" as="alternateBounds" />
          </mxGeometry>
        </mxCell>
        <mxCell id="6XwQYvwcAlZlrGyIBMI2-14" value="Address" style="shape=table;startSize=30;container=1;collapsible=1;childLayout=tableLayout;fixedRows=1;rowLines=0;fontStyle=1;align=center;resizeLast=1;html=1;" parent="1" vertex="1">
          <mxGeometry x="115" y="296" width="180" height="90" as="geometry" />
        </mxCell>
        <mxCell id="6XwQYvwcAlZlrGyIBMI2-15" value="" style="shape=tableRow;horizontal=0;startSize=0;swimlaneHead=0;swimlaneBody=0;fillColor=none;collapsible=0;dropTarget=0;points=[[0,0.5],[1,0.5]];portConstraint=eastwest;top=0;left=0;right=0;bottom=1;" parent="6XwQYvwcAlZlrGyIBMI2-14" vertex="1">
          <mxGeometry y="30" width="180" height="30" as="geometry" />
        </mxCell>
        <mxCell id="6XwQYvwcAlZlrGyIBMI2-16" value="PK" style="shape=partialRectangle;connectable=0;fillColor=none;top=0;left=0;bottom=0;right=0;fontStyle=1;overflow=hidden;whiteSpace=wrap;html=1;" parent="6XwQYvwcAlZlrGyIBMI2-15" vertex="1">
          <mxGeometry width="30" height="30" as="geometry">
            <mxRectangle width="30" height="30" as="alternateBounds" />
          </mxGeometry>
        </mxCell>
        <mxCell id="6XwQYvwcAlZlrGyIBMI2-17" value="LandPhone" style="shape=partialRectangle;connectable=0;fillColor=none;top=0;left=0;bottom=0;right=0;align=left;spacingLeft=6;fontStyle=5;overflow=hidden;whiteSpace=wrap;html=1;" parent="6XwQYvwcAlZlrGyIBMI2-15" vertex="1">
          <mxGeometry x="30" width="150" height="30" as="geometry">
            <mxRectangle width="150" height="30" as="alternateBounds" />
          </mxGeometry>
        </mxCell>
        <mxCell id="6XwQYvwcAlZlrGyIBMI2-18" value="" style="shape=tableRow;horizontal=0;startSize=0;swimlaneHead=0;swimlaneBody=0;fillColor=none;collapsible=0;dropTarget=0;points=[[0,0.5],[1,0.5]];portConstraint=eastwest;top=0;left=0;right=0;bottom=0;" parent="6XwQYvwcAlZlrGyIBMI2-14" vertex="1">
          <mxGeometry y="60" width="180" height="30" as="geometry" />
        </mxCell>
        <mxCell id="6XwQYvwcAlZlrGyIBMI2-19" value="" style="shape=partialRectangle;connectable=0;fillColor=none;top=0;left=0;bottom=0;right=0;editable=1;overflow=hidden;whiteSpace=wrap;html=1;" parent="6XwQYvwcAlZlrGyIBMI2-18" vertex="1">
          <mxGeometry width="30" height="30" as="geometry">
            <mxRectangle width="30" height="30" as="alternateBounds" />
          </mxGeometry>
        </mxCell>
        <mxCell id="6XwQYvwcAlZlrGyIBMI2-20" value="Address" style="shape=partialRectangle;connectable=0;fillColor=none;top=0;left=0;bottom=0;right=0;align=left;spacingLeft=6;overflow=hidden;whiteSpace=wrap;html=1;" parent="6XwQYvwcAlZlrGyIBMI2-18" vertex="1">
          <mxGeometry x="30" width="150" height="30" as="geometry">
            <mxRectangle width="150" height="30" as="alternateBounds" />
          </mxGeometry>
        </mxCell>
        <mxCell id="6XwQYvwcAlZlrGyIBMI2-27" value="Instrument" style="shape=table;startSize=30;container=1;collapsible=1;childLayout=tableLayout;fixedRows=1;rowLines=0;fontStyle=1;align=center;resizeLast=1;html=1;" parent="1" vertex="1">
          <mxGeometry x="327" y="58" width="180" height="120" as="geometry" />
        </mxCell>
        <mxCell id="6XwQYvwcAlZlrGyIBMI2-28" value="" style="shape=tableRow;horizontal=0;startSize=0;swimlaneHead=0;swimlaneBody=0;fillColor=none;collapsible=0;dropTarget=0;points=[[0,0.5],[1,0.5]];portConstraint=eastwest;top=0;left=0;right=0;bottom=1;" parent="6XwQYvwcAlZlrGyIBMI2-27" vertex="1">
          <mxGeometry y="30" width="180" height="30" as="geometry" />
        </mxCell>
        <mxCell id="6XwQYvwcAlZlrGyIBMI2-29" value="PK" style="shape=partialRectangle;connectable=0;fillColor=none;top=0;left=0;bottom=0;right=0;fontStyle=1;overflow=hidden;whiteSpace=wrap;html=1;" parent="6XwQYvwcAlZlrGyIBMI2-28" vertex="1">
          <mxGeometry width="30" height="30" as="geometry">
            <mxRectangle width="30" height="30" as="alternateBounds" />
          </mxGeometry>
        </mxCell>
        <mxCell id="6XwQYvwcAlZlrGyIBMI2-30" value="instrumentID" style="shape=partialRectangle;connectable=0;fillColor=none;top=0;left=0;bottom=0;right=0;align=left;spacingLeft=6;fontStyle=5;overflow=hidden;whiteSpace=wrap;html=1;" parent="6XwQYvwcAlZlrGyIBMI2-28" vertex="1">
          <mxGeometry x="30" width="150" height="30" as="geometry">
            <mxRectangle width="150" height="30" as="alternateBounds" />
          </mxGeometry>
        </mxCell>
        <mxCell id="6XwQYvwcAlZlrGyIBMI2-31" value="" style="shape=tableRow;horizontal=0;startSize=0;swimlaneHead=0;swimlaneBody=0;fillColor=none;collapsible=0;dropTarget=0;points=[[0,0.5],[1,0.5]];portConstraint=eastwest;top=0;left=0;right=0;bottom=0;" parent="6XwQYvwcAlZlrGyIBMI2-27" vertex="1">
          <mxGeometry y="60" width="180" height="30" as="geometry" />
        </mxCell>
        <mxCell id="6XwQYvwcAlZlrGyIBMI2-32" value="" style="shape=partialRectangle;connectable=0;fillColor=none;top=0;left=0;bottom=0;right=0;editable=1;overflow=hidden;whiteSpace=wrap;html=1;" parent="6XwQYvwcAlZlrGyIBMI2-31" vertex="1">
          <mxGeometry width="30" height="30" as="geometry">
            <mxRectangle width="30" height="30" as="alternateBounds" />
          </mxGeometry>
        </mxCell>
        <mxCell id="6XwQYvwcAlZlrGyIBMI2-33" value="name" style="shape=partialRectangle;connectable=0;fillColor=none;top=0;left=0;bottom=0;right=0;align=left;spacingLeft=6;overflow=hidden;whiteSpace=wrap;html=1;" parent="6XwQYvwcAlZlrGyIBMI2-31" vertex="1">
          <mxGeometry x="30" width="150" height="30" as="geometry">
            <mxRectangle width="150" height="30" as="alternateBounds" />
          </mxGeometry>
        </mxCell>
        <mxCell id="6XwQYvwcAlZlrGyIBMI2-34" value="" style="shape=tableRow;horizontal=0;startSize=0;swimlaneHead=0;swimlaneBody=0;fillColor=none;collapsible=0;dropTarget=0;points=[[0,0.5],[1,0.5]];portConstraint=eastwest;top=0;left=0;right=0;bottom=0;" parent="6XwQYvwcAlZlrGyIBMI2-27" vertex="1">
          <mxGeometry y="90" width="180" height="30" as="geometry" />
        </mxCell>
        <mxCell id="6XwQYvwcAlZlrGyIBMI2-35" value="" style="shape=partialRectangle;connectable=0;fillColor=none;top=0;left=0;bottom=0;right=0;editable=1;overflow=hidden;whiteSpace=wrap;html=1;" parent="6XwQYvwcAlZlrGyIBMI2-34" vertex="1">
          <mxGeometry width="30" height="30" as="geometry">
            <mxRectangle width="30" height="30" as="alternateBounds" />
          </mxGeometry>
        </mxCell>
        <mxCell id="6XwQYvwcAlZlrGyIBMI2-36" value="musical_key" style="shape=partialRectangle;connectable=0;fillColor=none;top=0;left=0;bottom=0;right=0;align=left;spacingLeft=6;overflow=hidden;whiteSpace=wrap;html=1;" parent="6XwQYvwcAlZlrGyIBMI2-34" vertex="1">
          <mxGeometry x="30" width="150" height="30" as="geometry">
            <mxRectangle width="150" height="30" as="alternateBounds" />
          </mxGeometry>
        </mxCell>
        <mxCell id="6XwQYvwcAlZlrGyIBMI2-40" value="Album" style="shape=table;startSize=30;container=1;collapsible=1;childLayout=tableLayout;fixedRows=1;rowLines=0;fontStyle=1;align=center;resizeLast=1;html=1;" parent="1" vertex="1">
          <mxGeometry x="609" y="20" width="180" height="180" as="geometry" />
        </mxCell>
        <mxCell id="6XwQYvwcAlZlrGyIBMI2-41" value="" style="shape=tableRow;horizontal=0;startSize=0;swimlaneHead=0;swimlaneBody=0;fillColor=none;collapsible=0;dropTarget=0;points=[[0,0.5],[1,0.5]];portConstraint=eastwest;top=0;left=0;right=0;bottom=1;" parent="6XwQYvwcAlZlrGyIBMI2-40" vertex="1">
          <mxGeometry y="30" width="180" height="30" as="geometry" />
        </mxCell>
        <mxCell id="6XwQYvwcAlZlrGyIBMI2-42" value="PK" style="shape=partialRectangle;connectable=0;fillColor=none;top=0;left=0;bottom=0;right=0;fontStyle=1;overflow=hidden;whiteSpace=wrap;html=1;" parent="6XwQYvwcAlZlrGyIBMI2-41" vertex="1">
          <mxGeometry width="30" height="30" as="geometry">
            <mxRectangle width="30" height="30" as="alternateBounds" />
          </mxGeometry>
        </mxCell>
        <mxCell id="6XwQYvwcAlZlrGyIBMI2-43" value="AlbumID" style="shape=partialRectangle;connectable=0;fillColor=none;top=0;left=0;bottom=0;right=0;align=left;spacingLeft=6;fontStyle=5;overflow=hidden;whiteSpace=wrap;html=1;" parent="6XwQYvwcAlZlrGyIBMI2-41" vertex="1">
          <mxGeometry x="30" width="150" height="30" as="geometry">
            <mxRectangle width="150" height="30" as="alternateBounds" />
          </mxGeometry>
        </mxCell>
        <mxCell id="6XwQYvwcAlZlrGyIBMI2-44" value="" style="shape=tableRow;horizontal=0;startSize=0;swimlaneHead=0;swimlaneBody=0;fillColor=none;collapsible=0;dropTarget=0;points=[[0,0.5],[1,0.5]];portConstraint=eastwest;top=0;left=0;right=0;bottom=0;" parent="6XwQYvwcAlZlrGyIBMI2-40" vertex="1">
          <mxGeometry y="60" width="180" height="30" as="geometry" />
        </mxCell>
        <mxCell id="6XwQYvwcAlZlrGyIBMI2-45" value="" style="shape=partialRectangle;connectable=0;fillColor=none;top=0;left=0;bottom=0;right=0;editable=1;overflow=hidden;whiteSpace=wrap;html=1;" parent="6XwQYvwcAlZlrGyIBMI2-44" vertex="1">
          <mxGeometry width="30" height="30" as="geometry">
            <mxRectangle width="30" height="30" as="alternateBounds" />
          </mxGeometry>
        </mxCell>
        <mxCell id="6XwQYvwcAlZlrGyIBMI2-46" value="Title" style="shape=partialRectangle;connectable=0;fillColor=none;top=0;left=0;bottom=0;right=0;align=left;spacingLeft=6;overflow=hidden;whiteSpace=wrap;html=1;" parent="6XwQYvwcAlZlrGyIBMI2-44" vertex="1">
          <mxGeometry x="30" width="150" height="30" as="geometry">
            <mxRectangle width="150" height="30" as="alternateBounds" />
          </mxGeometry>
        </mxCell>
        <mxCell id="6XwQYvwcAlZlrGyIBMI2-47" value="" style="shape=tableRow;horizontal=0;startSize=0;swimlaneHead=0;swimlaneBody=0;fillColor=none;collapsible=0;dropTarget=0;points=[[0,0.5],[1,0.5]];portConstraint=eastwest;top=0;left=0;right=0;bottom=0;" parent="6XwQYvwcAlZlrGyIBMI2-40" vertex="1">
          <mxGeometry y="90" width="180" height="30" as="geometry" />
        </mxCell>
        <mxCell id="6XwQYvwcAlZlrGyIBMI2-48" value="" style="shape=partialRectangle;connectable=0;fillColor=none;top=0;left=0;bottom=0;right=0;editable=1;overflow=hidden;whiteSpace=wrap;html=1;" parent="6XwQYvwcAlZlrGyIBMI2-47" vertex="1">
          <mxGeometry width="30" height="30" as="geometry">
            <mxRectangle width="30" height="30" as="alternateBounds" />
          </mxGeometry>
        </mxCell>
        <mxCell id="6XwQYvwcAlZlrGyIBMI2-49" value="CopyrightDate" style="shape=partialRectangle;connectable=0;fillColor=none;top=0;left=0;bottom=0;right=0;align=left;spacingLeft=6;overflow=hidden;whiteSpace=wrap;html=1;" parent="6XwQYvwcAlZlrGyIBMI2-47" vertex="1">
          <mxGeometry x="30" width="150" height="30" as="geometry">
            <mxRectangle width="150" height="30" as="alternateBounds" />
          </mxGeometry>
        </mxCell>
        <mxCell id="6XwQYvwcAlZlrGyIBMI2-50" value="" style="shape=tableRow;horizontal=0;startSize=0;swimlaneHead=0;swimlaneBody=0;fillColor=none;collapsible=0;dropTarget=0;points=[[0,0.5],[1,0.5]];portConstraint=eastwest;top=0;left=0;right=0;bottom=0;" parent="6XwQYvwcAlZlrGyIBMI2-40" vertex="1">
          <mxGeometry y="120" width="180" height="30" as="geometry" />
        </mxCell>
        <mxCell id="6XwQYvwcAlZlrGyIBMI2-51" value="" style="shape=partialRectangle;connectable=0;fillColor=none;top=0;left=0;bottom=0;right=0;editable=1;overflow=hidden;whiteSpace=wrap;html=1;" parent="6XwQYvwcAlZlrGyIBMI2-50" vertex="1">
          <mxGeometry width="30" height="30" as="geometry">
            <mxRectangle width="30" height="30" as="alternateBounds" />
          </mxGeometry>
        </mxCell>
        <mxCell id="6XwQYvwcAlZlrGyIBMI2-52" value="Format" style="shape=partialRectangle;connectable=0;fillColor=none;top=0;left=0;bottom=0;right=0;align=left;spacingLeft=6;overflow=hidden;whiteSpace=wrap;html=1;" parent="6XwQYvwcAlZlrGyIBMI2-50" vertex="1">
          <mxGeometry x="30" width="150" height="30" as="geometry">
            <mxRectangle width="150" height="30" as="alternateBounds" />
          </mxGeometry>
        </mxCell>
        <mxCell id="6XwQYvwcAlZlrGyIBMI2-114" style="shape=tableRow;horizontal=0;startSize=0;swimlaneHead=0;swimlaneBody=0;fillColor=none;collapsible=0;dropTarget=0;points=[[0,0.5],[1,0.5]];portConstraint=eastwest;top=0;left=0;right=0;bottom=0;" parent="6XwQYvwcAlZlrGyIBMI2-40" vertex="1">
          <mxGeometry y="150" width="180" height="30" as="geometry" />
        </mxCell>
        <mxCell id="6XwQYvwcAlZlrGyIBMI2-115" value="AK" style="shape=partialRectangle;connectable=0;fillColor=none;top=0;left=0;bottom=0;right=0;editable=1;overflow=hidden;whiteSpace=wrap;html=1;" parent="6XwQYvwcAlZlrGyIBMI2-114" vertex="1">
          <mxGeometry width="30" height="30" as="geometry">
            <mxRectangle width="30" height="30" as="alternateBounds" />
          </mxGeometry>
        </mxCell>
        <mxCell id="6XwQYvwcAlZlrGyIBMI2-116" value="Identifier" style="shape=partialRectangle;connectable=0;fillColor=none;top=0;left=0;bottom=0;right=0;align=left;spacingLeft=6;overflow=hidden;whiteSpace=wrap;html=1;" parent="6XwQYvwcAlZlrGyIBMI2-114" vertex="1">
          <mxGeometry x="30" width="150" height="30" as="geometry">
            <mxRectangle width="150" height="30" as="alternateBounds" />
          </mxGeometry>
        </mxCell>
        <mxCell id="6XwQYvwcAlZlrGyIBMI2-53" value="Song" style="shape=table;startSize=30;container=1;collapsible=1;childLayout=tableLayout;fixedRows=1;rowLines=0;fontStyle=1;align=center;resizeLast=1;html=1;" parent="1" vertex="1">
          <mxGeometry x="577" y="362" width="180" height="90" as="geometry" />
        </mxCell>
        <mxCell id="6XwQYvwcAlZlrGyIBMI2-54" value="" style="shape=tableRow;horizontal=0;startSize=0;swimlaneHead=0;swimlaneBody=0;fillColor=none;collapsible=0;dropTarget=0;points=[[0,0.5],[1,0.5]];portConstraint=eastwest;top=0;left=0;right=0;bottom=1;" parent="6XwQYvwcAlZlrGyIBMI2-53" vertex="1">
          <mxGeometry y="30" width="180" height="30" as="geometry" />
        </mxCell>
        <mxCell id="6XwQYvwcAlZlrGyIBMI2-55" value="PK" style="shape=partialRectangle;connectable=0;fillColor=none;top=0;left=0;bottom=0;right=0;fontStyle=1;overflow=hidden;whiteSpace=wrap;html=1;" parent="6XwQYvwcAlZlrGyIBMI2-54" vertex="1">
          <mxGeometry width="30" height="30" as="geometry">
            <mxRectangle width="30" height="30" as="alternateBounds" />
          </mxGeometry>
        </mxCell>
        <mxCell id="6XwQYvwcAlZlrGyIBMI2-56" value="SongID" style="shape=partialRectangle;connectable=0;fillColor=none;top=0;left=0;bottom=0;right=0;align=left;spacingLeft=6;fontStyle=5;overflow=hidden;whiteSpace=wrap;html=1;" parent="6XwQYvwcAlZlrGyIBMI2-54" vertex="1">
          <mxGeometry x="30" width="150" height="30" as="geometry">
            <mxRectangle width="150" height="30" as="alternateBounds" />
          </mxGeometry>
        </mxCell>
        <mxCell id="6XwQYvwcAlZlrGyIBMI2-57" value="" style="shape=tableRow;horizontal=0;startSize=0;swimlaneHead=0;swimlaneBody=0;fillColor=none;collapsible=0;dropTarget=0;points=[[0,0.5],[1,0.5]];portConstraint=eastwest;top=0;left=0;right=0;bottom=0;" parent="6XwQYvwcAlZlrGyIBMI2-53" vertex="1">
          <mxGeometry y="60" width="180" height="30" as="geometry" />
        </mxCell>
        <mxCell id="6XwQYvwcAlZlrGyIBMI2-58" value="" style="shape=partialRectangle;connectable=0;fillColor=none;top=0;left=0;bottom=0;right=0;editable=1;overflow=hidden;whiteSpace=wrap;html=1;" parent="6XwQYvwcAlZlrGyIBMI2-57" vertex="1">
          <mxGeometry width="30" height="30" as="geometry">
            <mxRectangle width="30" height="30" as="alternateBounds" />
          </mxGeometry>
        </mxCell>
        <mxCell id="6XwQYvwcAlZlrGyIBMI2-59" value="Title" style="shape=partialRectangle;connectable=0;fillColor=none;top=0;left=0;bottom=0;right=0;align=left;spacingLeft=6;overflow=hidden;whiteSpace=wrap;html=1;" parent="6XwQYvwcAlZlrGyIBMI2-57" vertex="1">
          <mxGeometry x="30" width="150" height="30" as="geometry">
            <mxRectangle width="150" height="30" as="alternateBounds" />
          </mxGeometry>
        </mxCell>
        <mxCell id="6XwQYvwcAlZlrGyIBMI2-66" value="" style="endArrow=none;html=1;rounded=0;exitX=0.272;exitY=1.053;exitDx=0;exitDy=0;exitPerimeter=0;" parent="1" source="6XwQYvwcAlZlrGyIBMI2-5" edge="1">
          <mxGeometry relative="1" as="geometry">
            <mxPoint x="343" y="298" as="sourcePoint" />
            <mxPoint x="94" y="415" as="targetPoint" />
          </mxGeometry>
        </mxCell>
        <mxCell id="6XwQYvwcAlZlrGyIBMI2-67" value="" style="endArrow=none;html=1;rounded=0;entryX=-0.017;entryY=0.867;entryDx=0;entryDy=0;entryPerimeter=0;" parent="1" source="6XwQYvwcAlZlrGyIBMI2-68" target="6XwQYvwcAlZlrGyIBMI2-54" edge="1">
          <mxGeometry relative="1" as="geometry">
            <mxPoint x="94" y="416" as="sourcePoint" />
            <mxPoint x="503" y="298" as="targetPoint" />
          </mxGeometry>
        </mxCell>
        <mxCell id="6XwQYvwcAlZlrGyIBMI2-69" value="" style="endArrow=none;html=1;rounded=0;" parent="1" edge="1">
          <mxGeometry relative="1" as="geometry">
            <mxPoint x="94" y="416" as="sourcePoint" />
            <mxPoint x="318" y="416" as="targetPoint" />
          </mxGeometry>
        </mxCell>
        <mxCell id="6XwQYvwcAlZlrGyIBMI2-68" value="" style="triangle;whiteSpace=wrap;html=1;direction=west;" parent="1" vertex="1">
          <mxGeometry x="320" y="404" width="19" height="29" as="geometry" />
        </mxCell>
        <mxCell id="6XwQYvwcAlZlrGyIBMI2-71" value="Author" style="text;html=1;strokeColor=none;fillColor=none;align=center;verticalAlign=middle;whiteSpace=wrap;rounded=0;" parent="1" vertex="1">
          <mxGeometry x="299.5" y="435" width="60" height="30" as="geometry" />
        </mxCell>
        <mxCell id="6XwQYvwcAlZlrGyIBMI2-73" value="1.1" style="text;html=1;strokeColor=none;fillColor=none;align=center;verticalAlign=middle;whiteSpace=wrap;rounded=0;" parent="1" vertex="1">
          <mxGeometry x="79" y="186" width="60" height="30" as="geometry" />
        </mxCell>
        <mxCell id="6XwQYvwcAlZlrGyIBMI2-74" value="" style="endArrow=none;html=1;rounded=0;entryX=0.374;entryY=1.013;entryDx=0;entryDy=0;entryPerimeter=0;" parent="1" source="6XwQYvwcAlZlrGyIBMI2-76" target="6XwQYvwcAlZlrGyIBMI2-114" edge="1">
          <mxGeometry relative="1" as="geometry">
            <mxPoint x="676" y="360" as="sourcePoint" />
            <mxPoint x="503" y="298" as="targetPoint" />
          </mxGeometry>
        </mxCell>
        <mxCell id="6XwQYvwcAlZlrGyIBMI2-78" value="" style="endArrow=none;html=1;rounded=0;entryX=1;entryY=0.5;entryDx=0;entryDy=0;" parent="1" target="6XwQYvwcAlZlrGyIBMI2-76" edge="1">
          <mxGeometry relative="1" as="geometry">
            <mxPoint x="676" y="360" as="sourcePoint" />
            <mxPoint x="680" y="172" as="targetPoint" />
          </mxGeometry>
        </mxCell>
        <mxCell id="6XwQYvwcAlZlrGyIBMI2-76" value="" style="triangle;whiteSpace=wrap;html=1;direction=south;" parent="1" vertex="1">
          <mxGeometry x="657" y="253" width="40" height="21" as="geometry" />
        </mxCell>
        <mxCell id="6XwQYvwcAlZlrGyIBMI2-79" value="Has" style="text;html=1;strokeColor=none;fillColor=none;align=center;verticalAlign=middle;whiteSpace=wrap;rounded=0;" parent="1" vertex="1">
          <mxGeometry x="671" y="266" width="60" height="30" as="geometry" />
        </mxCell>
        <mxCell id="6XwQYvwcAlZlrGyIBMI2-81" value="1..*" style="text;html=1;strokeColor=none;fillColor=none;align=center;verticalAlign=middle;whiteSpace=wrap;rounded=0;" parent="1" vertex="1">
          <mxGeometry x="665" y="336" width="60" height="30" as="geometry" />
        </mxCell>
        <mxCell id="6XwQYvwcAlZlrGyIBMI2-82" value="1..1" style="text;html=1;strokeColor=none;fillColor=none;align=center;verticalAlign=middle;whiteSpace=wrap;rounded=0;" parent="1" vertex="1">
          <mxGeometry x="659" y="202" width="60" height="30" as="geometry" />
        </mxCell>
        <mxCell id="6XwQYvwcAlZlrGyIBMI2-83" value="" style="endArrow=none;html=1;rounded=0;exitX=0.766;exitY=1.133;exitDx=0;exitDy=0;exitPerimeter=0;" parent="1" source="6XwQYvwcAlZlrGyIBMI2-5" edge="1">
          <mxGeometry relative="1" as="geometry">
            <mxPoint x="343" y="298" as="sourcePoint" />
            <mxPoint x="183" y="245" as="targetPoint" />
          </mxGeometry>
        </mxCell>
        <mxCell id="6XwQYvwcAlZlrGyIBMI2-84" value="" style="endArrow=none;html=1;rounded=0;" parent="1" source="6XwQYvwcAlZlrGyIBMI2-86" edge="1">
          <mxGeometry relative="1" as="geometry">
            <mxPoint x="181" y="246" as="sourcePoint" />
            <mxPoint x="591" y="251" as="targetPoint" />
          </mxGeometry>
        </mxCell>
        <mxCell id="6XwQYvwcAlZlrGyIBMI2-85" value="" style="endArrow=none;html=1;rounded=0;" parent="1" edge="1">
          <mxGeometry relative="1" as="geometry">
            <mxPoint x="590" y="357" as="sourcePoint" />
            <mxPoint x="588" y="252" as="targetPoint" />
          </mxGeometry>
        </mxCell>
        <mxCell id="6XwQYvwcAlZlrGyIBMI2-87" value="" style="endArrow=none;html=1;rounded=0;" parent="1" target="6XwQYvwcAlZlrGyIBMI2-86" edge="1">
          <mxGeometry relative="1" as="geometry">
            <mxPoint x="181" y="246" as="sourcePoint" />
            <mxPoint x="591" y="251" as="targetPoint" />
          </mxGeometry>
        </mxCell>
        <mxCell id="6XwQYvwcAlZlrGyIBMI2-86" value="" style="triangle;whiteSpace=wrap;html=1;" parent="1" vertex="1">
          <mxGeometry x="389" y="239" width="15" height="23" as="geometry" />
        </mxCell>
        <mxCell id="6XwQYvwcAlZlrGyIBMI2-88" value="performs" style="text;html=1;strokeColor=none;fillColor=none;align=center;verticalAlign=middle;whiteSpace=wrap;rounded=0;" parent="1" vertex="1">
          <mxGeometry x="370" y="266" width="60" height="30" as="geometry" />
        </mxCell>
        <mxCell id="6XwQYvwcAlZlrGyIBMI2-89" value="1..*" style="text;html=1;strokeColor=none;fillColor=none;align=center;verticalAlign=middle;whiteSpace=wrap;rounded=0;" parent="1" vertex="1">
          <mxGeometry x="169" y="189" width="60" height="30" as="geometry" />
        </mxCell>
        <mxCell id="6XwQYvwcAlZlrGyIBMI2-90" value="0..*" style="text;html=1;strokeColor=none;fillColor=none;align=center;verticalAlign=middle;whiteSpace=wrap;rounded=0;" parent="1" vertex="1">
          <mxGeometry x="577" y="336" width="60" height="30" as="geometry" />
        </mxCell>
        <mxCell id="6XwQYvwcAlZlrGyIBMI2-91" value="" style="endArrow=none;html=1;rounded=0;exitX=1;exitY=0.5;exitDx=0;exitDy=0;" parent="1" source="6XwQYvwcAlZlrGyIBMI2-2" target="6XwQYvwcAlZlrGyIBMI2-92" edge="1">
          <mxGeometry relative="1" as="geometry">
            <mxPoint x="343" y="298" as="sourcePoint" />
            <mxPoint x="323" y="123" as="targetPoint" />
          </mxGeometry>
        </mxCell>
        <mxCell id="6XwQYvwcAlZlrGyIBMI2-92" value="" style="triangle;whiteSpace=wrap;html=1;" parent="1" vertex="1">
          <mxGeometry x="264" y="134" width="10" height="14" as="geometry" />
        </mxCell>
        <mxCell id="6XwQYvwcAlZlrGyIBMI2-93" value="" style="endArrow=none;html=1;rounded=0;exitX=1;exitY=0.5;exitDx=0;exitDy=0;entryX=-0.006;entryY=0.827;entryDx=0;entryDy=0;entryPerimeter=0;" parent="1" source="6XwQYvwcAlZlrGyIBMI2-92" target="6XwQYvwcAlZlrGyIBMI2-31" edge="1">
          <mxGeometry relative="1" as="geometry">
            <mxPoint x="343" y="298" as="sourcePoint" />
            <mxPoint x="503" y="298" as="targetPoint" />
          </mxGeometry>
        </mxCell>
        <mxCell id="6XwQYvwcAlZlrGyIBMI2-94" value="plays" style="text;html=1;strokeColor=none;fillColor=none;align=center;verticalAlign=middle;whiteSpace=wrap;rounded=0;" parent="1" vertex="1">
          <mxGeometry x="239" y="108" width="60" height="30" as="geometry" />
        </mxCell>
        <mxCell id="6XwQYvwcAlZlrGyIBMI2-95" value="0..*" style="text;html=1;strokeColor=none;fillColor=none;align=center;verticalAlign=middle;whiteSpace=wrap;rounded=0;" parent="1" vertex="1">
          <mxGeometry x="283" y="148" width="60" height="30" as="geometry" />
        </mxCell>
        <mxCell id="6XwQYvwcAlZlrGyIBMI2-96" value="0..*" style="text;html=1;strokeColor=none;fillColor=none;align=center;verticalAlign=middle;whiteSpace=wrap;rounded=0;" parent="1" vertex="1">
          <mxGeometry x="207" y="143" width="60" height="30" as="geometry" />
        </mxCell>
        <mxCell id="6XwQYvwcAlZlrGyIBMI2-97" value="" style="endArrow=none;html=1;rounded=0;" parent="1" edge="1">
          <mxGeometry relative="1" as="geometry">
            <mxPoint x="132" y="95" as="sourcePoint" />
            <mxPoint x="132" y="20" as="targetPoint" />
          </mxGeometry>
        </mxCell>
        <mxCell id="6XwQYvwcAlZlrGyIBMI2-98" value="" style="endArrow=none;html=1;rounded=0;" parent="1" target="6XwQYvwcAlZlrGyIBMI2-99" edge="1">
          <mxGeometry relative="1" as="geometry">
            <mxPoint x="131" y="21" as="sourcePoint" />
            <mxPoint x="608" y="24" as="targetPoint" />
          </mxGeometry>
        </mxCell>
        <mxCell id="6XwQYvwcAlZlrGyIBMI2-99" value="" style="triangle;whiteSpace=wrap;html=1;" parent="1" vertex="1">
          <mxGeometry x="389" y="10" width="31" height="27" as="geometry" />
        </mxCell>
        <mxCell id="6XwQYvwcAlZlrGyIBMI2-100" value="" style="endArrow=none;html=1;rounded=0;exitX=1;exitY=0.5;exitDx=0;exitDy=0;" parent="1" source="6XwQYvwcAlZlrGyIBMI2-99" edge="1">
          <mxGeometry relative="1" as="geometry">
            <mxPoint x="338" y="210" as="sourcePoint" />
            <mxPoint x="608" y="24" as="targetPoint" />
          </mxGeometry>
        </mxCell>
        <mxCell id="6XwQYvwcAlZlrGyIBMI2-102" value="produce" style="text;html=1;strokeColor=none;fillColor=none;align=center;verticalAlign=middle;whiteSpace=wrap;rounded=0;" parent="1" vertex="1">
          <mxGeometry x="332" y="23" width="60" height="30" as="geometry" />
        </mxCell>
        <mxCell id="6XwQYvwcAlZlrGyIBMI2-104" value="0..*" style="text;html=1;strokeColor=none;fillColor=none;align=center;verticalAlign=middle;whiteSpace=wrap;rounded=0;" parent="1" vertex="1">
          <mxGeometry x="557" y="28" width="60" height="30" as="geometry" />
        </mxCell>
        <mxCell id="6XwQYvwcAlZlrGyIBMI2-105" value="1..*" style="text;html=1;strokeColor=none;fillColor=none;align=center;verticalAlign=middle;whiteSpace=wrap;rounded=0;" parent="1" vertex="1">
          <mxGeometry x="120" y="66" width="60" height="30" as="geometry" />
        </mxCell>
        <mxCell id="6XwQYvwcAlZlrGyIBMI2-106" value="1..*" style="text;html=1;strokeColor=none;fillColor=none;align=center;verticalAlign=middle;whiteSpace=wrap;rounded=0;" parent="1" vertex="1">
          <mxGeometry x="527" y="389" width="60" height="30" as="geometry" />
        </mxCell>
        <mxCell id="6XwQYvwcAlZlrGyIBMI2-107" value="" style="endArrow=none;html=1;rounded=0;exitX=1;exitY=0.5;exitDx=0;exitDy=0;" parent="1" source="6XwQYvwcAlZlrGyIBMI2-109" edge="1">
          <mxGeometry relative="1" as="geometry">
            <mxPoint x="338" y="210" as="sourcePoint" />
            <mxPoint x="139" y="294" as="targetPoint" />
            <Array as="points" />
          </mxGeometry>
        </mxCell>
        <mxCell id="6XwQYvwcAlZlrGyIBMI2-110" value="" style="endArrow=none;html=1;rounded=0;exitX=1;exitY=0;exitDx=0;exitDy=0;" parent="1" source="6XwQYvwcAlZlrGyIBMI2-73" target="6XwQYvwcAlZlrGyIBMI2-109" edge="1">
          <mxGeometry relative="1" as="geometry">
            <mxPoint x="139" y="186" as="sourcePoint" />
            <mxPoint x="139" y="294" as="targetPoint" />
          </mxGeometry>
        </mxCell>
        <mxCell id="6XwQYvwcAlZlrGyIBMI2-109" value="" style="triangle;whiteSpace=wrap;html=1;direction=south;" parent="1" vertex="1">
          <mxGeometry x="125" y="237" width="29" height="16" as="geometry" />
        </mxCell>
        <mxCell id="6XwQYvwcAlZlrGyIBMI2-111" value="lives" style="text;html=1;strokeColor=none;fillColor=none;align=center;verticalAlign=middle;whiteSpace=wrap;rounded=0;" parent="1" vertex="1">
          <mxGeometry x="125" y="248.5" width="60" height="30" as="geometry" />
        </mxCell>
        <mxCell id="6XwQYvwcAlZlrGyIBMI2-112" value="1..*" style="text;html=1;strokeColor=none;fillColor=none;align=center;verticalAlign=middle;whiteSpace=wrap;rounded=0;" parent="1" vertex="1">
          <mxGeometry x="122" y="184" width="60" height="30" as="geometry" />
        </mxCell>
        <mxCell id="6XwQYvwcAlZlrGyIBMI2-113" value="1..1" style="text;html=1;strokeColor=none;fillColor=none;align=center;verticalAlign=middle;whiteSpace=wrap;rounded=0;" parent="1" vertex="1">
          <mxGeometry x="98" y="274" width="60" height="30" as="geometry" />
        </mxCell>
      </root>
    </mxGraphModel>
  </diagram>
  <diagram id="pYyJiJxh3iGCCHqV8U1f" name="Page-2">
    <mxGraphModel dx="1050" dy="574" grid="0" gridSize="10" guides="1" tooltips="1" connect="1" arrows="1" fold="1" page="1" pageScale="1" pageWidth="850" pageHeight="1100" math="0" shadow="0">
      <root>
        <mxCell id="0" />
        <mxCell id="1" parent="0" />
        <mxCell id="pPLuRDUp9inM_uv0aIV3-1" value="Airplane" style="shape=table;startSize=30;container=1;collapsible=1;childLayout=tableLayout;fixedRows=1;rowLines=0;fontStyle=1;align=center;resizeLast=1;html=1;" parent="1" vertex="1">
          <mxGeometry x="38" y="92" width="180" height="60" as="geometry" />
        </mxCell>
        <mxCell id="pPLuRDUp9inM_uv0aIV3-2" value="" style="shape=tableRow;horizontal=0;startSize=0;swimlaneHead=0;swimlaneBody=0;fillColor=none;collapsible=0;dropTarget=0;points=[[0,0.5],[1,0.5]];portConstraint=eastwest;top=0;left=0;right=0;bottom=1;" parent="pPLuRDUp9inM_uv0aIV3-1" vertex="1">
          <mxGeometry y="30" width="180" height="30" as="geometry" />
        </mxCell>
        <mxCell id="pPLuRDUp9inM_uv0aIV3-3" value="PK" style="shape=partialRectangle;connectable=0;fillColor=none;top=0;left=0;bottom=0;right=0;fontStyle=1;overflow=hidden;whiteSpace=wrap;html=1;" parent="pPLuRDUp9inM_uv0aIV3-2" vertex="1">
          <mxGeometry width="30" height="30" as="geometry">
            <mxRectangle width="30" height="30" as="alternateBounds" />
          </mxGeometry>
        </mxCell>
        <mxCell id="pPLuRDUp9inM_uv0aIV3-4" value="RegistrationNumber" style="shape=partialRectangle;connectable=0;fillColor=none;top=0;left=0;bottom=0;right=0;align=left;spacingLeft=6;fontStyle=5;overflow=hidden;whiteSpace=wrap;html=1;" parent="pPLuRDUp9inM_uv0aIV3-2" vertex="1">
          <mxGeometry x="30" width="150" height="30" as="geometry">
            <mxRectangle width="150" height="30" as="alternateBounds" />
          </mxGeometry>
        </mxCell>
        <mxCell id="pPLuRDUp9inM_uv0aIV3-16" value="AirplaneModel" style="shape=table;startSize=30;container=1;collapsible=1;childLayout=tableLayout;fixedRows=1;rowLines=0;fontStyle=1;align=center;resizeLast=1;html=1;" parent="1" vertex="1">
          <mxGeometry x="359" y="57" width="180" height="120" as="geometry" />
        </mxCell>
        <mxCell id="pPLuRDUp9inM_uv0aIV3-17" value="" style="shape=tableRow;horizontal=0;startSize=0;swimlaneHead=0;swimlaneBody=0;fillColor=none;collapsible=0;dropTarget=0;points=[[0,0.5],[1,0.5]];portConstraint=eastwest;top=0;left=0;right=0;bottom=1;" parent="pPLuRDUp9inM_uv0aIV3-16" vertex="1">
          <mxGeometry y="30" width="180" height="30" as="geometry" />
        </mxCell>
        <mxCell id="pPLuRDUp9inM_uv0aIV3-18" value="PK" style="shape=partialRectangle;connectable=0;fillColor=none;top=0;left=0;bottom=0;right=0;fontStyle=1;overflow=hidden;whiteSpace=wrap;html=1;" parent="pPLuRDUp9inM_uv0aIV3-17" vertex="1">
          <mxGeometry width="30" height="30" as="geometry">
            <mxRectangle width="30" height="30" as="alternateBounds" />
          </mxGeometry>
        </mxCell>
        <mxCell id="pPLuRDUp9inM_uv0aIV3-19" value="Number" style="shape=partialRectangle;connectable=0;fillColor=none;top=0;left=0;bottom=0;right=0;align=left;spacingLeft=6;fontStyle=5;overflow=hidden;whiteSpace=wrap;html=1;" parent="pPLuRDUp9inM_uv0aIV3-17" vertex="1">
          <mxGeometry x="30" width="150" height="30" as="geometry">
            <mxRectangle width="150" height="30" as="alternateBounds" />
          </mxGeometry>
        </mxCell>
        <mxCell id="pPLuRDUp9inM_uv0aIV3-20" value="" style="shape=tableRow;horizontal=0;startSize=0;swimlaneHead=0;swimlaneBody=0;fillColor=none;collapsible=0;dropTarget=0;points=[[0,0.5],[1,0.5]];portConstraint=eastwest;top=0;left=0;right=0;bottom=0;" parent="pPLuRDUp9inM_uv0aIV3-16" vertex="1">
          <mxGeometry y="60" width="180" height="30" as="geometry" />
        </mxCell>
        <mxCell id="pPLuRDUp9inM_uv0aIV3-21" value="" style="shape=partialRectangle;connectable=0;fillColor=none;top=0;left=0;bottom=0;right=0;editable=1;overflow=hidden;whiteSpace=wrap;html=1;" parent="pPLuRDUp9inM_uv0aIV3-20" vertex="1">
          <mxGeometry width="30" height="30" as="geometry">
            <mxRectangle width="30" height="30" as="alternateBounds" />
          </mxGeometry>
        </mxCell>
        <mxCell id="pPLuRDUp9inM_uv0aIV3-22" value="Capacity" style="shape=partialRectangle;connectable=0;fillColor=none;top=0;left=0;bottom=0;right=0;align=left;spacingLeft=6;overflow=hidden;whiteSpace=wrap;html=1;" parent="pPLuRDUp9inM_uv0aIV3-20" vertex="1">
          <mxGeometry x="30" width="150" height="30" as="geometry">
            <mxRectangle width="150" height="30" as="alternateBounds" />
          </mxGeometry>
        </mxCell>
        <mxCell id="pPLuRDUp9inM_uv0aIV3-23" value="" style="shape=tableRow;horizontal=0;startSize=0;swimlaneHead=0;swimlaneBody=0;fillColor=none;collapsible=0;dropTarget=0;points=[[0,0.5],[1,0.5]];portConstraint=eastwest;top=0;left=0;right=0;bottom=0;" parent="pPLuRDUp9inM_uv0aIV3-16" vertex="1">
          <mxGeometry y="90" width="180" height="30" as="geometry" />
        </mxCell>
        <mxCell id="pPLuRDUp9inM_uv0aIV3-24" value="" style="shape=partialRectangle;connectable=0;fillColor=none;top=0;left=0;bottom=0;right=0;editable=1;overflow=hidden;whiteSpace=wrap;html=1;" parent="pPLuRDUp9inM_uv0aIV3-23" vertex="1">
          <mxGeometry width="30" height="30" as="geometry">
            <mxRectangle width="30" height="30" as="alternateBounds" />
          </mxGeometry>
        </mxCell>
        <mxCell id="pPLuRDUp9inM_uv0aIV3-25" value="Weight" style="shape=partialRectangle;connectable=0;fillColor=none;top=0;left=0;bottom=0;right=0;align=left;spacingLeft=6;overflow=hidden;whiteSpace=wrap;html=1;" parent="pPLuRDUp9inM_uv0aIV3-23" vertex="1">
          <mxGeometry x="30" width="150" height="30" as="geometry">
            <mxRectangle width="150" height="30" as="alternateBounds" />
          </mxGeometry>
        </mxCell>
        <mxCell id="pPLuRDUp9inM_uv0aIV3-29" value="Technician" style="shape=table;startSize=30;container=1;collapsible=1;childLayout=tableLayout;fixedRows=1;rowLines=0;fontStyle=1;align=center;resizeLast=1;html=1;" parent="1" vertex="1">
          <mxGeometry x="294" y="552" width="180" height="90" as="geometry" />
        </mxCell>
        <mxCell id="0_mvBr3xfdZu3hVpQZj1-24" style="shape=tableRow;horizontal=0;startSize=0;swimlaneHead=0;swimlaneBody=0;fillColor=none;collapsible=0;dropTarget=0;points=[[0,0.5],[1,0.5]];portConstraint=eastwest;top=0;left=0;right=0;bottom=0;" vertex="1" parent="pPLuRDUp9inM_uv0aIV3-29">
          <mxGeometry y="30" width="180" height="30" as="geometry" />
        </mxCell>
        <mxCell id="0_mvBr3xfdZu3hVpQZj1-25" style="shape=partialRectangle;connectable=0;fillColor=none;top=0;left=0;bottom=0;right=0;editable=1;overflow=hidden;whiteSpace=wrap;html=1;" vertex="1" parent="0_mvBr3xfdZu3hVpQZj1-24">
          <mxGeometry width="30" height="30" as="geometry">
            <mxRectangle width="30" height="30" as="alternateBounds" />
          </mxGeometry>
        </mxCell>
        <mxCell id="0_mvBr3xfdZu3hVpQZj1-26" value="Phone" style="shape=partialRectangle;connectable=0;fillColor=none;top=0;left=0;bottom=0;right=0;align=left;spacingLeft=6;overflow=hidden;whiteSpace=wrap;html=1;" vertex="1" parent="0_mvBr3xfdZu3hVpQZj1-24">
          <mxGeometry x="30" width="150" height="30" as="geometry">
            <mxRectangle width="150" height="30" as="alternateBounds" />
          </mxGeometry>
        </mxCell>
        <mxCell id="pPLuRDUp9inM_uv0aIV3-42" style="shape=tableRow;horizontal=0;startSize=0;swimlaneHead=0;swimlaneBody=0;fillColor=none;collapsible=0;dropTarget=0;points=[[0,0.5],[1,0.5]];portConstraint=eastwest;top=0;left=0;right=0;bottom=0;" parent="pPLuRDUp9inM_uv0aIV3-29" vertex="1">
          <mxGeometry y="60" width="180" height="30" as="geometry" />
        </mxCell>
        <mxCell id="pPLuRDUp9inM_uv0aIV3-43" style="shape=partialRectangle;connectable=0;fillColor=none;top=0;left=0;bottom=0;right=0;editable=1;overflow=hidden;whiteSpace=wrap;html=1;" parent="pPLuRDUp9inM_uv0aIV3-42" vertex="1">
          <mxGeometry width="30" height="30" as="geometry">
            <mxRectangle width="30" height="30" as="alternateBounds" />
          </mxGeometry>
        </mxCell>
        <mxCell id="pPLuRDUp9inM_uv0aIV3-44" value="Salary" style="shape=partialRectangle;connectable=0;fillColor=none;top=0;left=0;bottom=0;right=0;align=left;spacingLeft=6;overflow=hidden;whiteSpace=wrap;html=1;" parent="pPLuRDUp9inM_uv0aIV3-42" vertex="1">
          <mxGeometry x="30" width="150" height="30" as="geometry">
            <mxRectangle width="150" height="30" as="alternateBounds" />
          </mxGeometry>
        </mxCell>
        <mxCell id="pPLuRDUp9inM_uv0aIV3-45" value="Employee" style="shape=table;startSize=30;container=1;collapsible=1;childLayout=tableLayout;fixedRows=1;rowLines=0;fontStyle=1;align=center;resizeLast=1;html=1;" parent="1" vertex="1">
          <mxGeometry x="145" y="301" width="180" height="120" as="geometry" />
        </mxCell>
        <mxCell id="pPLuRDUp9inM_uv0aIV3-46" value="" style="shape=tableRow;horizontal=0;startSize=0;swimlaneHead=0;swimlaneBody=0;fillColor=none;collapsible=0;dropTarget=0;points=[[0,0.5],[1,0.5]];portConstraint=eastwest;top=0;left=0;right=0;bottom=1;" parent="pPLuRDUp9inM_uv0aIV3-45" vertex="1">
          <mxGeometry y="30" width="180" height="30" as="geometry" />
        </mxCell>
        <mxCell id="pPLuRDUp9inM_uv0aIV3-47" value="PK" style="shape=partialRectangle;connectable=0;fillColor=none;top=0;left=0;bottom=0;right=0;fontStyle=1;overflow=hidden;whiteSpace=wrap;html=1;" parent="pPLuRDUp9inM_uv0aIV3-46" vertex="1">
          <mxGeometry width="30" height="30" as="geometry">
            <mxRectangle width="30" height="30" as="alternateBounds" />
          </mxGeometry>
        </mxCell>
        <mxCell id="pPLuRDUp9inM_uv0aIV3-48" value="SSN" style="shape=partialRectangle;connectable=0;fillColor=none;top=0;left=0;bottom=0;right=0;align=left;spacingLeft=6;fontStyle=5;overflow=hidden;whiteSpace=wrap;html=1;" parent="pPLuRDUp9inM_uv0aIV3-46" vertex="1">
          <mxGeometry x="30" width="150" height="30" as="geometry">
            <mxRectangle width="150" height="30" as="alternateBounds" />
          </mxGeometry>
        </mxCell>
        <mxCell id="pPLuRDUp9inM_uv0aIV3-49" value="" style="shape=tableRow;horizontal=0;startSize=0;swimlaneHead=0;swimlaneBody=0;fillColor=none;collapsible=0;dropTarget=0;points=[[0,0.5],[1,0.5]];portConstraint=eastwest;top=0;left=0;right=0;bottom=0;" parent="pPLuRDUp9inM_uv0aIV3-45" vertex="1">
          <mxGeometry y="60" width="180" height="30" as="geometry" />
        </mxCell>
        <mxCell id="pPLuRDUp9inM_uv0aIV3-50" value="" style="shape=partialRectangle;connectable=0;fillColor=none;top=0;left=0;bottom=0;right=0;editable=1;overflow=hidden;whiteSpace=wrap;html=1;" parent="pPLuRDUp9inM_uv0aIV3-49" vertex="1">
          <mxGeometry width="30" height="30" as="geometry">
            <mxRectangle width="30" height="30" as="alternateBounds" />
          </mxGeometry>
        </mxCell>
        <mxCell id="pPLuRDUp9inM_uv0aIV3-51" value="Name" style="shape=partialRectangle;connectable=0;fillColor=none;top=0;left=0;bottom=0;right=0;align=left;spacingLeft=6;overflow=hidden;whiteSpace=wrap;html=1;" parent="pPLuRDUp9inM_uv0aIV3-49" vertex="1">
          <mxGeometry x="30" width="150" height="30" as="geometry">
            <mxRectangle width="150" height="30" as="alternateBounds" />
          </mxGeometry>
        </mxCell>
        <mxCell id="0_mvBr3xfdZu3hVpQZj1-20" style="shape=tableRow;horizontal=0;startSize=0;swimlaneHead=0;swimlaneBody=0;fillColor=none;collapsible=0;dropTarget=0;points=[[0,0.5],[1,0.5]];portConstraint=eastwest;top=0;left=0;right=0;bottom=0;" vertex="1" parent="pPLuRDUp9inM_uv0aIV3-45">
          <mxGeometry y="90" width="180" height="30" as="geometry" />
        </mxCell>
        <mxCell id="0_mvBr3xfdZu3hVpQZj1-21" style="shape=partialRectangle;connectable=0;fillColor=none;top=0;left=0;bottom=0;right=0;editable=1;overflow=hidden;whiteSpace=wrap;html=1;" vertex="1" parent="0_mvBr3xfdZu3hVpQZj1-20">
          <mxGeometry width="30" height="30" as="geometry">
            <mxRectangle width="30" height="30" as="alternateBounds" />
          </mxGeometry>
        </mxCell>
        <mxCell id="0_mvBr3xfdZu3hVpQZj1-22" value="MembershipID" style="shape=partialRectangle;connectable=0;fillColor=none;top=0;left=0;bottom=0;right=0;align=left;spacingLeft=6;overflow=hidden;whiteSpace=wrap;html=1;" vertex="1" parent="0_mvBr3xfdZu3hVpQZj1-20">
          <mxGeometry x="30" width="150" height="30" as="geometry">
            <mxRectangle width="150" height="30" as="alternateBounds" />
          </mxGeometry>
        </mxCell>
        <mxCell id="pPLuRDUp9inM_uv0aIV3-58" value="TrafficController" style="shape=table;startSize=30;container=1;collapsible=1;childLayout=tableLayout;fixedRows=1;rowLines=0;fontStyle=1;align=center;resizeLast=1;html=1;" parent="1" vertex="1">
          <mxGeometry x="38" y="552" width="180" height="60" as="geometry" />
        </mxCell>
        <mxCell id="pPLuRDUp9inM_uv0aIV3-62" value="" style="shape=tableRow;horizontal=0;startSize=0;swimlaneHead=0;swimlaneBody=0;fillColor=none;collapsible=0;dropTarget=0;points=[[0,0.5],[1,0.5]];portConstraint=eastwest;top=0;left=0;right=0;bottom=0;" parent="pPLuRDUp9inM_uv0aIV3-58" vertex="1">
          <mxGeometry y="30" width="180" height="30" as="geometry" />
        </mxCell>
        <mxCell id="pPLuRDUp9inM_uv0aIV3-63" value="" style="shape=partialRectangle;connectable=0;fillColor=none;top=0;left=0;bottom=0;right=0;editable=1;overflow=hidden;whiteSpace=wrap;html=1;" parent="pPLuRDUp9inM_uv0aIV3-62" vertex="1">
          <mxGeometry width="30" height="30" as="geometry">
            <mxRectangle width="30" height="30" as="alternateBounds" />
          </mxGeometry>
        </mxCell>
        <mxCell id="pPLuRDUp9inM_uv0aIV3-64" value="Latest_date_of_exam" style="shape=partialRectangle;connectable=0;fillColor=none;top=0;left=0;bottom=0;right=0;align=left;spacingLeft=6;overflow=hidden;whiteSpace=wrap;html=1;" parent="pPLuRDUp9inM_uv0aIV3-62" vertex="1">
          <mxGeometry x="30" width="150" height="30" as="geometry">
            <mxRectangle width="150" height="30" as="alternateBounds" />
          </mxGeometry>
        </mxCell>
        <mxCell id="pPLuRDUp9inM_uv0aIV3-71" value="Union" style="shape=table;startSize=30;container=1;collapsible=1;childLayout=tableLayout;fixedRows=1;rowLines=0;fontStyle=1;align=center;resizeLast=1;html=1;" parent="1" vertex="1">
          <mxGeometry x="462" y="289" width="180" height="90" as="geometry" />
        </mxCell>
        <mxCell id="pPLuRDUp9inM_uv0aIV3-72" value="" style="shape=tableRow;horizontal=0;startSize=0;swimlaneHead=0;swimlaneBody=0;fillColor=none;collapsible=0;dropTarget=0;points=[[0,0.5],[1,0.5]];portConstraint=eastwest;top=0;left=0;right=0;bottom=1;" parent="pPLuRDUp9inM_uv0aIV3-71" vertex="1">
          <mxGeometry y="30" width="180" height="30" as="geometry" />
        </mxCell>
        <mxCell id="pPLuRDUp9inM_uv0aIV3-73" value="PK" style="shape=partialRectangle;connectable=0;fillColor=none;top=0;left=0;bottom=0;right=0;fontStyle=1;overflow=hidden;whiteSpace=wrap;html=1;" parent="pPLuRDUp9inM_uv0aIV3-72" vertex="1">
          <mxGeometry width="30" height="30" as="geometry">
            <mxRectangle width="30" height="30" as="alternateBounds" />
          </mxGeometry>
        </mxCell>
        <mxCell id="pPLuRDUp9inM_uv0aIV3-74" value="UnionID" style="shape=partialRectangle;connectable=0;fillColor=none;top=0;left=0;bottom=0;right=0;align=left;spacingLeft=6;fontStyle=5;overflow=hidden;whiteSpace=wrap;html=1;" parent="pPLuRDUp9inM_uv0aIV3-72" vertex="1">
          <mxGeometry x="30" width="150" height="30" as="geometry">
            <mxRectangle width="150" height="30" as="alternateBounds" />
          </mxGeometry>
        </mxCell>
        <mxCell id="pPLuRDUp9inM_uv0aIV3-75" value="" style="shape=tableRow;horizontal=0;startSize=0;swimlaneHead=0;swimlaneBody=0;fillColor=none;collapsible=0;dropTarget=0;points=[[0,0.5],[1,0.5]];portConstraint=eastwest;top=0;left=0;right=0;bottom=0;" parent="pPLuRDUp9inM_uv0aIV3-71" vertex="1">
          <mxGeometry y="60" width="180" height="30" as="geometry" />
        </mxCell>
        <mxCell id="pPLuRDUp9inM_uv0aIV3-76" value="" style="shape=partialRectangle;connectable=0;fillColor=none;top=0;left=0;bottom=0;right=0;editable=1;overflow=hidden;whiteSpace=wrap;html=1;" parent="pPLuRDUp9inM_uv0aIV3-75" vertex="1">
          <mxGeometry width="30" height="30" as="geometry">
            <mxRectangle width="30" height="30" as="alternateBounds" />
          </mxGeometry>
        </mxCell>
        <mxCell id="pPLuRDUp9inM_uv0aIV3-77" value="UnionName" style="shape=partialRectangle;connectable=0;fillColor=none;top=0;left=0;bottom=0;right=0;align=left;spacingLeft=6;overflow=hidden;whiteSpace=wrap;html=1;" parent="pPLuRDUp9inM_uv0aIV3-75" vertex="1">
          <mxGeometry x="30" width="150" height="30" as="geometry">
            <mxRectangle width="150" height="30" as="alternateBounds" />
          </mxGeometry>
        </mxCell>
        <mxCell id="0_mvBr3xfdZu3hVpQZj1-1" value="" style="endArrow=none;html=1;rounded=0;exitX=1;exitY=0.5;exitDx=0;exitDy=0;" edge="1" parent="1" source="0_mvBr3xfdZu3hVpQZj1-2">
          <mxGeometry relative="1" as="geometry">
            <mxPoint x="344" y="286" as="sourcePoint" />
            <mxPoint x="356" y="124" as="targetPoint" />
          </mxGeometry>
        </mxCell>
        <mxCell id="0_mvBr3xfdZu3hVpQZj1-3" value="" style="endArrow=none;html=1;rounded=0;exitX=1;exitY=0.053;exitDx=0;exitDy=0;exitPerimeter=0;" edge="1" parent="1" source="pPLuRDUp9inM_uv0aIV3-2" target="0_mvBr3xfdZu3hVpQZj1-2">
          <mxGeometry relative="1" as="geometry">
            <mxPoint x="234" y="124" as="sourcePoint" />
            <mxPoint x="356" y="124" as="targetPoint" />
          </mxGeometry>
        </mxCell>
        <mxCell id="0_mvBr3xfdZu3hVpQZj1-2" value="" style="triangle;whiteSpace=wrap;html=1;" vertex="1" parent="1">
          <mxGeometry x="284" y="112" width="13" height="25" as="geometry" />
        </mxCell>
        <mxCell id="0_mvBr3xfdZu3hVpQZj1-4" value="Is" style="text;html=1;strokeColor=none;fillColor=none;align=center;verticalAlign=middle;whiteSpace=wrap;rounded=0;" vertex="1" parent="1">
          <mxGeometry x="265" y="86" width="60" height="30" as="geometry" />
        </mxCell>
        <mxCell id="0_mvBr3xfdZu3hVpQZj1-5" value="1..1" style="text;html=1;strokeColor=none;fillColor=none;align=center;verticalAlign=middle;whiteSpace=wrap;rounded=0;" vertex="1" parent="1">
          <mxGeometry x="316" y="122" width="60" height="30" as="geometry" />
        </mxCell>
        <mxCell id="0_mvBr3xfdZu3hVpQZj1-6" value="1..*" style="text;html=1;strokeColor=none;fillColor=none;align=center;verticalAlign=middle;whiteSpace=wrap;rounded=0;" vertex="1" parent="1">
          <mxGeometry x="201" y="125" width="60" height="30" as="geometry" />
        </mxCell>
        <mxCell id="0_mvBr3xfdZu3hVpQZj1-7" value="" style="endArrow=none;html=1;rounded=0;exitX=0.506;exitY=1.14;exitDx=0;exitDy=0;exitPerimeter=0;" edge="1" parent="1" source="pPLuRDUp9inM_uv0aIV3-23">
          <mxGeometry relative="1" as="geometry">
            <mxPoint x="344" y="330" as="sourcePoint" />
            <mxPoint x="450" y="231" as="targetPoint" />
          </mxGeometry>
        </mxCell>
        <mxCell id="0_mvBr3xfdZu3hVpQZj1-8" value="" style="endArrow=none;html=1;rounded=0;" edge="1" parent="1">
          <mxGeometry relative="1" as="geometry">
            <mxPoint x="227" y="229" as="sourcePoint" />
            <mxPoint x="449" y="231" as="targetPoint" />
          </mxGeometry>
        </mxCell>
        <mxCell id="0_mvBr3xfdZu3hVpQZj1-9" value="" style="endArrow=none;html=1;rounded=0;entryX=0.463;entryY=0.002;entryDx=0;entryDy=0;entryPerimeter=0;" edge="1" parent="1" target="pPLuRDUp9inM_uv0aIV3-45">
          <mxGeometry relative="1" as="geometry">
            <mxPoint x="228" y="231" as="sourcePoint" />
            <mxPoint x="504" y="330" as="targetPoint" />
          </mxGeometry>
        </mxCell>
        <mxCell id="0_mvBr3xfdZu3hVpQZj1-10" value="" style="triangle;whiteSpace=wrap;html=1;direction=east;" vertex="1" parent="1">
          <mxGeometry x="337.5" y="216" width="17" height="28" as="geometry" />
        </mxCell>
        <mxCell id="0_mvBr3xfdZu3hVpQZj1-11" value="Expert" style="text;html=1;strokeColor=none;fillColor=none;align=center;verticalAlign=middle;whiteSpace=wrap;rounded=0;" vertex="1" parent="1">
          <mxGeometry x="314" y="244" width="60" height="30" as="geometry" />
        </mxCell>
        <mxCell id="0_mvBr3xfdZu3hVpQZj1-12" value="1..*" style="text;html=1;strokeColor=none;fillColor=none;align=center;verticalAlign=middle;whiteSpace=wrap;rounded=0;" vertex="1" parent="1">
          <mxGeometry x="430" y="180" width="60" height="30" as="geometry" />
        </mxCell>
        <mxCell id="0_mvBr3xfdZu3hVpQZj1-13" value="1..*" style="text;html=1;strokeColor=none;fillColor=none;align=center;verticalAlign=middle;whiteSpace=wrap;rounded=0;" vertex="1" parent="1">
          <mxGeometry x="212" y="274" width="60" height="30" as="geometry" />
        </mxCell>
        <mxCell id="0_mvBr3xfdZu3hVpQZj1-14" value="" style="endArrow=none;html=1;rounded=0;exitX=1;exitY=0.5;exitDx=0;exitDy=0;entryX=-0.004;entryY=-0.127;entryDx=0;entryDy=0;entryPerimeter=0;" edge="1" parent="1" source="0_mvBr3xfdZu3hVpQZj1-15" target="pPLuRDUp9inM_uv0aIV3-75">
          <mxGeometry relative="1" as="geometry">
            <mxPoint x="344" y="330" as="sourcePoint" />
            <mxPoint x="504" y="330" as="targetPoint" />
          </mxGeometry>
        </mxCell>
        <mxCell id="0_mvBr3xfdZu3hVpQZj1-16" value="" style="endArrow=none;html=1;rounded=0;exitX=1;exitY=0.5;exitDx=0;exitDy=0;entryX=0;entryY=0.5;entryDx=0;entryDy=0;" edge="1" parent="1" source="pPLuRDUp9inM_uv0aIV3-46" target="0_mvBr3xfdZu3hVpQZj1-15">
          <mxGeometry relative="1" as="geometry">
            <mxPoint x="325" y="346" as="sourcePoint" />
            <mxPoint x="385" y="346" as="targetPoint" />
          </mxGeometry>
        </mxCell>
        <mxCell id="0_mvBr3xfdZu3hVpQZj1-15" value="" style="triangle;whiteSpace=wrap;html=1;" vertex="1" parent="1">
          <mxGeometry x="389" y="333.5" width="16" height="25" as="geometry" />
        </mxCell>
        <mxCell id="0_mvBr3xfdZu3hVpQZj1-17" value="belongsTo" style="text;html=1;strokeColor=none;fillColor=none;align=center;verticalAlign=middle;whiteSpace=wrap;rounded=0;" vertex="1" parent="1">
          <mxGeometry x="365" y="354" width="60" height="34" as="geometry" />
        </mxCell>
        <mxCell id="0_mvBr3xfdZu3hVpQZj1-18" value="1..1" style="text;html=1;strokeColor=none;fillColor=none;align=center;verticalAlign=middle;whiteSpace=wrap;rounded=0;" vertex="1" parent="1">
          <mxGeometry x="414" y="319" width="60" height="30" as="geometry" />
        </mxCell>
        <mxCell id="0_mvBr3xfdZu3hVpQZj1-19" value="1..*" style="text;html=1;strokeColor=none;fillColor=none;align=center;verticalAlign=middle;whiteSpace=wrap;rounded=0;" vertex="1" parent="1">
          <mxGeometry x="310" y="319" width="60" height="30" as="geometry" />
        </mxCell>
        <mxCell id="0_mvBr3xfdZu3hVpQZj1-23" value="" style="endArrow=none;html=1;rounded=0;exitX=0;exitY=0.5;exitDx=0;exitDy=0;" edge="1" parent="1" source="0_mvBr3xfdZu3hVpQZj1-30">
          <mxGeometry relative="1" as="geometry">
            <mxPoint x="344" y="330" as="sourcePoint" />
            <mxPoint x="232" y="500" as="targetPoint" />
          </mxGeometry>
        </mxCell>
        <mxCell id="0_mvBr3xfdZu3hVpQZj1-27" value="" style="endArrow=none;html=1;rounded=0;" edge="1" parent="1">
          <mxGeometry relative="1" as="geometry">
            <mxPoint x="108" y="500" as="sourcePoint" />
            <mxPoint x="390" y="500" as="targetPoint" />
          </mxGeometry>
        </mxCell>
        <mxCell id="0_mvBr3xfdZu3hVpQZj1-28" value="" style="endArrow=none;html=1;rounded=0;entryX=0.373;entryY=0.007;entryDx=0;entryDy=0;entryPerimeter=0;" edge="1" parent="1" target="pPLuRDUp9inM_uv0aIV3-58">
          <mxGeometry relative="1" as="geometry">
            <mxPoint x="106" y="500" as="sourcePoint" />
            <mxPoint x="504" y="431" as="targetPoint" />
          </mxGeometry>
        </mxCell>
        <mxCell id="0_mvBr3xfdZu3hVpQZj1-29" value="" style="endArrow=none;html=1;rounded=0;" edge="1" parent="1">
          <mxGeometry relative="1" as="geometry">
            <mxPoint x="388" y="499" as="sourcePoint" />
            <mxPoint x="390" y="551" as="targetPoint" />
          </mxGeometry>
        </mxCell>
        <mxCell id="0_mvBr3xfdZu3hVpQZj1-31" value="" style="endArrow=none;html=1;rounded=0;exitX=0.486;exitY=0.967;exitDx=0;exitDy=0;exitPerimeter=0;" edge="1" parent="1" source="0_mvBr3xfdZu3hVpQZj1-20" target="0_mvBr3xfdZu3hVpQZj1-30">
          <mxGeometry relative="1" as="geometry">
            <mxPoint x="232" y="420" as="sourcePoint" />
            <mxPoint x="232" y="500" as="targetPoint" />
          </mxGeometry>
        </mxCell>
        <mxCell id="0_mvBr3xfdZu3hVpQZj1-30" value="" style="triangle;whiteSpace=wrap;html=1;direction=north;" vertex="1" parent="1">
          <mxGeometry x="219.5" y="447" width="23" height="26" as="geometry" />
        </mxCell>
        <mxCell id="0_mvBr3xfdZu3hVpQZj1-33" value="{Mandatory, OR}" style="text;html=1;strokeColor=none;fillColor=none;align=center;verticalAlign=middle;whiteSpace=wrap;rounded=0;" vertex="1" parent="1">
          <mxGeometry x="242.5" y="447" width="104.5" height="30" as="geometry" />
        </mxCell>
      </root>
    </mxGraphModel>
  </diagram>
  <diagram id="kAnemSTBdejWZTlWpgcF" name="Page-3">
    <mxGraphModel dx="1050" dy="574" grid="0" gridSize="10" guides="1" tooltips="1" connect="1" arrows="1" fold="1" page="1" pageScale="1" pageWidth="850" pageHeight="1100" math="0" shadow="0">
      <root>
        <mxCell id="0" />
        <mxCell id="1" parent="0" />
        <mxCell id="yfldKkA-49J0g9vqTXsP-1" value="Instructor" style="shape=table;startSize=30;container=1;collapsible=1;childLayout=tableLayout;fixedRows=1;rowLines=0;fontStyle=1;align=center;resizeLast=1;html=1;" vertex="1" parent="1">
          <mxGeometry x="66" y="34" width="180" height="120" as="geometry" />
        </mxCell>
        <mxCell id="yfldKkA-49J0g9vqTXsP-2" value="" style="shape=tableRow;horizontal=0;startSize=0;swimlaneHead=0;swimlaneBody=0;fillColor=none;collapsible=0;dropTarget=0;points=[[0,0.5],[1,0.5]];portConstraint=eastwest;top=0;left=0;right=0;bottom=1;" vertex="1" parent="yfldKkA-49J0g9vqTXsP-1">
          <mxGeometry y="30" width="180" height="30" as="geometry" />
        </mxCell>
        <mxCell id="yfldKkA-49J0g9vqTXsP-3" value="PK" style="shape=partialRectangle;connectable=0;fillColor=none;top=0;left=0;bottom=0;right=0;fontStyle=1;overflow=hidden;whiteSpace=wrap;html=1;" vertex="1" parent="yfldKkA-49J0g9vqTXsP-2">
          <mxGeometry width="30" height="30" as="geometry">
            <mxRectangle width="30" height="30" as="alternateBounds" />
          </mxGeometry>
        </mxCell>
        <mxCell id="yfldKkA-49J0g9vqTXsP-4" value="InstructorID" style="shape=partialRectangle;connectable=0;fillColor=none;top=0;left=0;bottom=0;right=0;align=left;spacingLeft=6;fontStyle=5;overflow=hidden;whiteSpace=wrap;html=1;" vertex="1" parent="yfldKkA-49J0g9vqTXsP-2">
          <mxGeometry x="30" width="150" height="30" as="geometry">
            <mxRectangle width="150" height="30" as="alternateBounds" />
          </mxGeometry>
        </mxCell>
        <mxCell id="yfldKkA-49J0g9vqTXsP-5" value="" style="shape=tableRow;horizontal=0;startSize=0;swimlaneHead=0;swimlaneBody=0;fillColor=none;collapsible=0;dropTarget=0;points=[[0,0.5],[1,0.5]];portConstraint=eastwest;top=0;left=0;right=0;bottom=0;" vertex="1" parent="yfldKkA-49J0g9vqTXsP-1">
          <mxGeometry y="60" width="180" height="30" as="geometry" />
        </mxCell>
        <mxCell id="yfldKkA-49J0g9vqTXsP-6" value="" style="shape=partialRectangle;connectable=0;fillColor=none;top=0;left=0;bottom=0;right=0;editable=1;overflow=hidden;whiteSpace=wrap;html=1;" vertex="1" parent="yfldKkA-49J0g9vqTXsP-5">
          <mxGeometry width="30" height="30" as="geometry">
            <mxRectangle width="30" height="30" as="alternateBounds" />
          </mxGeometry>
        </mxCell>
        <mxCell id="yfldKkA-49J0g9vqTXsP-7" value="Name" style="shape=partialRectangle;connectable=0;fillColor=none;top=0;left=0;bottom=0;right=0;align=left;spacingLeft=6;overflow=hidden;whiteSpace=wrap;html=1;" vertex="1" parent="yfldKkA-49J0g9vqTXsP-5">
          <mxGeometry x="30" width="150" height="30" as="geometry">
            <mxRectangle width="150" height="30" as="alternateBounds" />
          </mxGeometry>
        </mxCell>
        <mxCell id="yfldKkA-49J0g9vqTXsP-8" value="" style="shape=tableRow;horizontal=0;startSize=0;swimlaneHead=0;swimlaneBody=0;fillColor=none;collapsible=0;dropTarget=0;points=[[0,0.5],[1,0.5]];portConstraint=eastwest;top=0;left=0;right=0;bottom=0;" vertex="1" parent="yfldKkA-49J0g9vqTXsP-1">
          <mxGeometry y="90" width="180" height="30" as="geometry" />
        </mxCell>
        <mxCell id="yfldKkA-49J0g9vqTXsP-9" value="" style="shape=partialRectangle;connectable=0;fillColor=none;top=0;left=0;bottom=0;right=0;editable=1;overflow=hidden;whiteSpace=wrap;html=1;" vertex="1" parent="yfldKkA-49J0g9vqTXsP-8">
          <mxGeometry width="30" height="30" as="geometry">
            <mxRectangle width="30" height="30" as="alternateBounds" />
          </mxGeometry>
        </mxCell>
        <mxCell id="yfldKkA-49J0g9vqTXsP-10" value="Salary" style="shape=partialRectangle;connectable=0;fillColor=none;top=0;left=0;bottom=0;right=0;align=left;spacingLeft=6;overflow=hidden;whiteSpace=wrap;html=1;" vertex="1" parent="yfldKkA-49J0g9vqTXsP-8">
          <mxGeometry x="30" width="150" height="30" as="geometry">
            <mxRectangle width="150" height="30" as="alternateBounds" />
          </mxGeometry>
        </mxCell>
        <mxCell id="yfldKkA-49J0g9vqTXsP-14" value="Department" style="shape=table;startSize=30;container=1;collapsible=1;childLayout=tableLayout;fixedRows=1;rowLines=0;fontStyle=1;align=center;resizeLast=1;html=1;" vertex="1" parent="1">
          <mxGeometry x="448" y="25" width="180" height="120" as="geometry" />
        </mxCell>
        <mxCell id="yfldKkA-49J0g9vqTXsP-15" value="" style="shape=tableRow;horizontal=0;startSize=0;swimlaneHead=0;swimlaneBody=0;fillColor=none;collapsible=0;dropTarget=0;points=[[0,0.5],[1,0.5]];portConstraint=eastwest;top=0;left=0;right=0;bottom=1;" vertex="1" parent="yfldKkA-49J0g9vqTXsP-14">
          <mxGeometry y="30" width="180" height="30" as="geometry" />
        </mxCell>
        <mxCell id="yfldKkA-49J0g9vqTXsP-16" value="PK" style="shape=partialRectangle;connectable=0;fillColor=none;top=0;left=0;bottom=0;right=0;fontStyle=1;overflow=hidden;whiteSpace=wrap;html=1;" vertex="1" parent="yfldKkA-49J0g9vqTXsP-15">
          <mxGeometry width="30" height="30" as="geometry">
            <mxRectangle width="30" height="30" as="alternateBounds" />
          </mxGeometry>
        </mxCell>
        <mxCell id="yfldKkA-49J0g9vqTXsP-17" value="ID" style="shape=partialRectangle;connectable=0;fillColor=none;top=0;left=0;bottom=0;right=0;align=left;spacingLeft=6;fontStyle=5;overflow=hidden;whiteSpace=wrap;html=1;" vertex="1" parent="yfldKkA-49J0g9vqTXsP-15">
          <mxGeometry x="30" width="150" height="30" as="geometry">
            <mxRectangle width="150" height="30" as="alternateBounds" />
          </mxGeometry>
        </mxCell>
        <mxCell id="yfldKkA-49J0g9vqTXsP-18" value="" style="shape=tableRow;horizontal=0;startSize=0;swimlaneHead=0;swimlaneBody=0;fillColor=none;collapsible=0;dropTarget=0;points=[[0,0.5],[1,0.5]];portConstraint=eastwest;top=0;left=0;right=0;bottom=0;" vertex="1" parent="yfldKkA-49J0g9vqTXsP-14">
          <mxGeometry y="60" width="180" height="30" as="geometry" />
        </mxCell>
        <mxCell id="yfldKkA-49J0g9vqTXsP-19" value="" style="shape=partialRectangle;connectable=0;fillColor=none;top=0;left=0;bottom=0;right=0;editable=1;overflow=hidden;whiteSpace=wrap;html=1;" vertex="1" parent="yfldKkA-49J0g9vqTXsP-18">
          <mxGeometry width="30" height="30" as="geometry">
            <mxRectangle width="30" height="30" as="alternateBounds" />
          </mxGeometry>
        </mxCell>
        <mxCell id="yfldKkA-49J0g9vqTXsP-20" value="Name" style="shape=partialRectangle;connectable=0;fillColor=none;top=0;left=0;bottom=0;right=0;align=left;spacingLeft=6;overflow=hidden;whiteSpace=wrap;html=1;" vertex="1" parent="yfldKkA-49J0g9vqTXsP-18">
          <mxGeometry x="30" width="150" height="30" as="geometry">
            <mxRectangle width="150" height="30" as="alternateBounds" />
          </mxGeometry>
        </mxCell>
        <mxCell id="yfldKkA-49J0g9vqTXsP-21" value="" style="shape=tableRow;horizontal=0;startSize=0;swimlaneHead=0;swimlaneBody=0;fillColor=none;collapsible=0;dropTarget=0;points=[[0,0.5],[1,0.5]];portConstraint=eastwest;top=0;left=0;right=0;bottom=0;" vertex="1" parent="yfldKkA-49J0g9vqTXsP-14">
          <mxGeometry y="90" width="180" height="30" as="geometry" />
        </mxCell>
        <mxCell id="yfldKkA-49J0g9vqTXsP-22" value="" style="shape=partialRectangle;connectable=0;fillColor=none;top=0;left=0;bottom=0;right=0;editable=1;overflow=hidden;whiteSpace=wrap;html=1;" vertex="1" parent="yfldKkA-49J0g9vqTXsP-21">
          <mxGeometry width="30" height="30" as="geometry">
            <mxRectangle width="30" height="30" as="alternateBounds" />
          </mxGeometry>
        </mxCell>
        <mxCell id="yfldKkA-49J0g9vqTXsP-23" value="Budget" style="shape=partialRectangle;connectable=0;fillColor=none;top=0;left=0;bottom=0;right=0;align=left;spacingLeft=6;overflow=hidden;whiteSpace=wrap;html=1;" vertex="1" parent="yfldKkA-49J0g9vqTXsP-21">
          <mxGeometry x="30" width="150" height="30" as="geometry">
            <mxRectangle width="150" height="30" as="alternateBounds" />
          </mxGeometry>
        </mxCell>
        <mxCell id="yfldKkA-49J0g9vqTXsP-27" value="Course" style="shape=table;startSize=30;container=1;collapsible=1;childLayout=tableLayout;fixedRows=1;rowLines=0;fontStyle=1;align=center;resizeLast=1;html=1;" vertex="1" parent="1">
          <mxGeometry x="77" y="245" width="180" height="150" as="geometry" />
        </mxCell>
        <mxCell id="yfldKkA-49J0g9vqTXsP-28" value="" style="shape=tableRow;horizontal=0;startSize=0;swimlaneHead=0;swimlaneBody=0;fillColor=none;collapsible=0;dropTarget=0;points=[[0,0.5],[1,0.5]];portConstraint=eastwest;top=0;left=0;right=0;bottom=1;" vertex="1" parent="yfldKkA-49J0g9vqTXsP-27">
          <mxGeometry y="30" width="180" height="30" as="geometry" />
        </mxCell>
        <mxCell id="yfldKkA-49J0g9vqTXsP-29" value="PK" style="shape=partialRectangle;connectable=0;fillColor=none;top=0;left=0;bottom=0;right=0;fontStyle=1;overflow=hidden;whiteSpace=wrap;html=1;" vertex="1" parent="yfldKkA-49J0g9vqTXsP-28">
          <mxGeometry width="30" height="30" as="geometry">
            <mxRectangle width="30" height="30" as="alternateBounds" />
          </mxGeometry>
        </mxCell>
        <mxCell id="yfldKkA-49J0g9vqTXsP-30" value="ID" style="shape=partialRectangle;connectable=0;fillColor=none;top=0;left=0;bottom=0;right=0;align=left;spacingLeft=6;fontStyle=5;overflow=hidden;whiteSpace=wrap;html=1;" vertex="1" parent="yfldKkA-49J0g9vqTXsP-28">
          <mxGeometry x="30" width="150" height="30" as="geometry">
            <mxRectangle width="150" height="30" as="alternateBounds" />
          </mxGeometry>
        </mxCell>
        <mxCell id="yfldKkA-49J0g9vqTXsP-31" value="" style="shape=tableRow;horizontal=0;startSize=0;swimlaneHead=0;swimlaneBody=0;fillColor=none;collapsible=0;dropTarget=0;points=[[0,0.5],[1,0.5]];portConstraint=eastwest;top=0;left=0;right=0;bottom=0;" vertex="1" parent="yfldKkA-49J0g9vqTXsP-27">
          <mxGeometry y="60" width="180" height="30" as="geometry" />
        </mxCell>
        <mxCell id="yfldKkA-49J0g9vqTXsP-32" value="" style="shape=partialRectangle;connectable=0;fillColor=none;top=0;left=0;bottom=0;right=0;editable=1;overflow=hidden;whiteSpace=wrap;html=1;" vertex="1" parent="yfldKkA-49J0g9vqTXsP-31">
          <mxGeometry width="30" height="30" as="geometry">
            <mxRectangle width="30" height="30" as="alternateBounds" />
          </mxGeometry>
        </mxCell>
        <mxCell id="yfldKkA-49J0g9vqTXsP-33" value="Name" style="shape=partialRectangle;connectable=0;fillColor=none;top=0;left=0;bottom=0;right=0;align=left;spacingLeft=6;overflow=hidden;whiteSpace=wrap;html=1;" vertex="1" parent="yfldKkA-49J0g9vqTXsP-31">
          <mxGeometry x="30" width="150" height="30" as="geometry">
            <mxRectangle width="150" height="30" as="alternateBounds" />
          </mxGeometry>
        </mxCell>
        <mxCell id="yfldKkA-49J0g9vqTXsP-34" value="" style="shape=tableRow;horizontal=0;startSize=0;swimlaneHead=0;swimlaneBody=0;fillColor=none;collapsible=0;dropTarget=0;points=[[0,0.5],[1,0.5]];portConstraint=eastwest;top=0;left=0;right=0;bottom=0;" vertex="1" parent="yfldKkA-49J0g9vqTXsP-27">
          <mxGeometry y="90" width="180" height="30" as="geometry" />
        </mxCell>
        <mxCell id="yfldKkA-49J0g9vqTXsP-35" value="" style="shape=partialRectangle;connectable=0;fillColor=none;top=0;left=0;bottom=0;right=0;editable=1;overflow=hidden;whiteSpace=wrap;html=1;" vertex="1" parent="yfldKkA-49J0g9vqTXsP-34">
          <mxGeometry width="30" height="30" as="geometry">
            <mxRectangle width="30" height="30" as="alternateBounds" />
          </mxGeometry>
        </mxCell>
        <mxCell id="yfldKkA-49J0g9vqTXsP-36" value="Title" style="shape=partialRectangle;connectable=0;fillColor=none;top=0;left=0;bottom=0;right=0;align=left;spacingLeft=6;overflow=hidden;whiteSpace=wrap;html=1;" vertex="1" parent="yfldKkA-49J0g9vqTXsP-34">
          <mxGeometry x="30" width="150" height="30" as="geometry">
            <mxRectangle width="150" height="30" as="alternateBounds" />
          </mxGeometry>
        </mxCell>
        <mxCell id="yfldKkA-49J0g9vqTXsP-37" value="" style="shape=tableRow;horizontal=0;startSize=0;swimlaneHead=0;swimlaneBody=0;fillColor=none;collapsible=0;dropTarget=0;points=[[0,0.5],[1,0.5]];portConstraint=eastwest;top=0;left=0;right=0;bottom=0;" vertex="1" parent="yfldKkA-49J0g9vqTXsP-27">
          <mxGeometry y="120" width="180" height="30" as="geometry" />
        </mxCell>
        <mxCell id="yfldKkA-49J0g9vqTXsP-38" value="" style="shape=partialRectangle;connectable=0;fillColor=none;top=0;left=0;bottom=0;right=0;editable=1;overflow=hidden;whiteSpace=wrap;html=1;" vertex="1" parent="yfldKkA-49J0g9vqTXsP-37">
          <mxGeometry width="30" height="30" as="geometry">
            <mxRectangle width="30" height="30" as="alternateBounds" />
          </mxGeometry>
        </mxCell>
        <mxCell id="yfldKkA-49J0g9vqTXsP-39" value="Credits" style="shape=partialRectangle;connectable=0;fillColor=none;top=0;left=0;bottom=0;right=0;align=left;spacingLeft=6;overflow=hidden;whiteSpace=wrap;html=1;" vertex="1" parent="yfldKkA-49J0g9vqTXsP-37">
          <mxGeometry x="30" width="150" height="30" as="geometry">
            <mxRectangle width="150" height="30" as="alternateBounds" />
          </mxGeometry>
        </mxCell>
        <mxCell id="yfldKkA-49J0g9vqTXsP-40" value="Section" style="shape=table;startSize=30;container=1;collapsible=1;childLayout=tableLayout;fixedRows=1;rowLines=0;fontStyle=1;align=center;resizeLast=1;html=1;" vertex="1" parent="1">
          <mxGeometry x="569" y="282" width="180" height="120" as="geometry" />
        </mxCell>
        <mxCell id="yfldKkA-49J0g9vqTXsP-41" value="" style="shape=tableRow;horizontal=0;startSize=0;swimlaneHead=0;swimlaneBody=0;fillColor=none;collapsible=0;dropTarget=0;points=[[0,0.5],[1,0.5]];portConstraint=eastwest;top=0;left=0;right=0;bottom=1;" vertex="1" parent="yfldKkA-49J0g9vqTXsP-40">
          <mxGeometry y="30" width="180" height="30" as="geometry" />
        </mxCell>
        <mxCell id="yfldKkA-49J0g9vqTXsP-42" value="PK" style="shape=partialRectangle;connectable=0;fillColor=none;top=0;left=0;bottom=0;right=0;fontStyle=1;overflow=hidden;whiteSpace=wrap;html=1;" vertex="1" parent="yfldKkA-49J0g9vqTXsP-41">
          <mxGeometry width="30" height="30" as="geometry">
            <mxRectangle width="30" height="30" as="alternateBounds" />
          </mxGeometry>
        </mxCell>
        <mxCell id="yfldKkA-49J0g9vqTXsP-43" value="ID" style="shape=partialRectangle;connectable=0;fillColor=none;top=0;left=0;bottom=0;right=0;align=left;spacingLeft=6;fontStyle=5;overflow=hidden;whiteSpace=wrap;html=1;" vertex="1" parent="yfldKkA-49J0g9vqTXsP-41">
          <mxGeometry x="30" width="150" height="30" as="geometry">
            <mxRectangle width="150" height="30" as="alternateBounds" />
          </mxGeometry>
        </mxCell>
        <mxCell id="yfldKkA-49J0g9vqTXsP-44" value="" style="shape=tableRow;horizontal=0;startSize=0;swimlaneHead=0;swimlaneBody=0;fillColor=none;collapsible=0;dropTarget=0;points=[[0,0.5],[1,0.5]];portConstraint=eastwest;top=0;left=0;right=0;bottom=0;" vertex="1" parent="yfldKkA-49J0g9vqTXsP-40">
          <mxGeometry y="60" width="180" height="30" as="geometry" />
        </mxCell>
        <mxCell id="yfldKkA-49J0g9vqTXsP-45" value="" style="shape=partialRectangle;connectable=0;fillColor=none;top=0;left=0;bottom=0;right=0;editable=1;overflow=hidden;whiteSpace=wrap;html=1;" vertex="1" parent="yfldKkA-49J0g9vqTXsP-44">
          <mxGeometry width="30" height="30" as="geometry">
            <mxRectangle width="30" height="30" as="alternateBounds" />
          </mxGeometry>
        </mxCell>
        <mxCell id="yfldKkA-49J0g9vqTXsP-46" value="Semester" style="shape=partialRectangle;connectable=0;fillColor=none;top=0;left=0;bottom=0;right=0;align=left;spacingLeft=6;overflow=hidden;whiteSpace=wrap;html=1;" vertex="1" parent="yfldKkA-49J0g9vqTXsP-44">
          <mxGeometry x="30" width="150" height="30" as="geometry">
            <mxRectangle width="150" height="30" as="alternateBounds" />
          </mxGeometry>
        </mxCell>
        <mxCell id="yfldKkA-49J0g9vqTXsP-47" value="" style="shape=tableRow;horizontal=0;startSize=0;swimlaneHead=0;swimlaneBody=0;fillColor=none;collapsible=0;dropTarget=0;points=[[0,0.5],[1,0.5]];portConstraint=eastwest;top=0;left=0;right=0;bottom=0;" vertex="1" parent="yfldKkA-49J0g9vqTXsP-40">
          <mxGeometry y="90" width="180" height="30" as="geometry" />
        </mxCell>
        <mxCell id="yfldKkA-49J0g9vqTXsP-48" value="" style="shape=partialRectangle;connectable=0;fillColor=none;top=0;left=0;bottom=0;right=0;editable=1;overflow=hidden;whiteSpace=wrap;html=1;" vertex="1" parent="yfldKkA-49J0g9vqTXsP-47">
          <mxGeometry width="30" height="30" as="geometry">
            <mxRectangle width="30" height="30" as="alternateBounds" />
          </mxGeometry>
        </mxCell>
        <mxCell id="yfldKkA-49J0g9vqTXsP-49" value="Year" style="shape=partialRectangle;connectable=0;fillColor=none;top=0;left=0;bottom=0;right=0;align=left;spacingLeft=6;overflow=hidden;whiteSpace=wrap;html=1;" vertex="1" parent="yfldKkA-49J0g9vqTXsP-47">
          <mxGeometry x="30" width="150" height="30" as="geometry">
            <mxRectangle width="150" height="30" as="alternateBounds" />
          </mxGeometry>
        </mxCell>
        <mxCell id="yfldKkA-49J0g9vqTXsP-53" value="Classroom" style="shape=table;startSize=30;container=1;collapsible=1;childLayout=tableLayout;fixedRows=1;rowLines=0;fontStyle=1;align=center;resizeLast=1;html=1;" vertex="1" parent="1">
          <mxGeometry x="82" y="480" width="180" height="90" as="geometry" />
        </mxCell>
        <mxCell id="yfldKkA-49J0g9vqTXsP-54" value="" style="shape=tableRow;horizontal=0;startSize=0;swimlaneHead=0;swimlaneBody=0;fillColor=none;collapsible=0;dropTarget=0;points=[[0,0.5],[1,0.5]];portConstraint=eastwest;top=0;left=0;right=0;bottom=1;" vertex="1" parent="yfldKkA-49J0g9vqTXsP-53">
          <mxGeometry y="30" width="180" height="30" as="geometry" />
        </mxCell>
        <mxCell id="yfldKkA-49J0g9vqTXsP-55" value="PK" style="shape=partialRectangle;connectable=0;fillColor=none;top=0;left=0;bottom=0;right=0;fontStyle=1;overflow=hidden;whiteSpace=wrap;html=1;" vertex="1" parent="yfldKkA-49J0g9vqTXsP-54">
          <mxGeometry width="30" height="30" as="geometry">
            <mxRectangle width="30" height="30" as="alternateBounds" />
          </mxGeometry>
        </mxCell>
        <mxCell id="yfldKkA-49J0g9vqTXsP-56" value="Number" style="shape=partialRectangle;connectable=0;fillColor=none;top=0;left=0;bottom=0;right=0;align=left;spacingLeft=6;fontStyle=5;overflow=hidden;whiteSpace=wrap;html=1;" vertex="1" parent="yfldKkA-49J0g9vqTXsP-54">
          <mxGeometry x="30" width="150" height="30" as="geometry">
            <mxRectangle width="150" height="30" as="alternateBounds" />
          </mxGeometry>
        </mxCell>
        <mxCell id="yfldKkA-49J0g9vqTXsP-57" value="" style="shape=tableRow;horizontal=0;startSize=0;swimlaneHead=0;swimlaneBody=0;fillColor=none;collapsible=0;dropTarget=0;points=[[0,0.5],[1,0.5]];portConstraint=eastwest;top=0;left=0;right=0;bottom=0;" vertex="1" parent="yfldKkA-49J0g9vqTXsP-53">
          <mxGeometry y="60" width="180" height="30" as="geometry" />
        </mxCell>
        <mxCell id="yfldKkA-49J0g9vqTXsP-58" value="" style="shape=partialRectangle;connectable=0;fillColor=none;top=0;left=0;bottom=0;right=0;editable=1;overflow=hidden;whiteSpace=wrap;html=1;" vertex="1" parent="yfldKkA-49J0g9vqTXsP-57">
          <mxGeometry width="30" height="30" as="geometry">
            <mxRectangle width="30" height="30" as="alternateBounds" />
          </mxGeometry>
        </mxCell>
        <mxCell id="yfldKkA-49J0g9vqTXsP-59" value="capacity" style="shape=partialRectangle;connectable=0;fillColor=none;top=0;left=0;bottom=0;right=0;align=left;spacingLeft=6;overflow=hidden;whiteSpace=wrap;html=1;" vertex="1" parent="yfldKkA-49J0g9vqTXsP-57">
          <mxGeometry x="30" width="150" height="30" as="geometry">
            <mxRectangle width="150" height="30" as="alternateBounds" />
          </mxGeometry>
        </mxCell>
        <mxCell id="yfldKkA-49J0g9vqTXsP-66" value="Student" style="shape=table;startSize=30;container=1;collapsible=1;childLayout=tableLayout;fixedRows=1;rowLines=0;fontStyle=1;align=center;resizeLast=1;html=1;" vertex="1" parent="1">
          <mxGeometry x="391" y="471" width="180" height="120" as="geometry" />
        </mxCell>
        <mxCell id="yfldKkA-49J0g9vqTXsP-67" value="" style="shape=tableRow;horizontal=0;startSize=0;swimlaneHead=0;swimlaneBody=0;fillColor=none;collapsible=0;dropTarget=0;points=[[0,0.5],[1,0.5]];portConstraint=eastwest;top=0;left=0;right=0;bottom=1;" vertex="1" parent="yfldKkA-49J0g9vqTXsP-66">
          <mxGeometry y="30" width="180" height="30" as="geometry" />
        </mxCell>
        <mxCell id="yfldKkA-49J0g9vqTXsP-68" value="PK" style="shape=partialRectangle;connectable=0;fillColor=none;top=0;left=0;bottom=0;right=0;fontStyle=1;overflow=hidden;whiteSpace=wrap;html=1;" vertex="1" parent="yfldKkA-49J0g9vqTXsP-67">
          <mxGeometry width="30" height="30" as="geometry">
            <mxRectangle width="30" height="30" as="alternateBounds" />
          </mxGeometry>
        </mxCell>
        <mxCell id="yfldKkA-49J0g9vqTXsP-69" value="ID" style="shape=partialRectangle;connectable=0;fillColor=none;top=0;left=0;bottom=0;right=0;align=left;spacingLeft=6;fontStyle=5;overflow=hidden;whiteSpace=wrap;html=1;" vertex="1" parent="yfldKkA-49J0g9vqTXsP-67">
          <mxGeometry x="30" width="150" height="30" as="geometry">
            <mxRectangle width="150" height="30" as="alternateBounds" />
          </mxGeometry>
        </mxCell>
        <mxCell id="yfldKkA-49J0g9vqTXsP-70" value="" style="shape=tableRow;horizontal=0;startSize=0;swimlaneHead=0;swimlaneBody=0;fillColor=none;collapsible=0;dropTarget=0;points=[[0,0.5],[1,0.5]];portConstraint=eastwest;top=0;left=0;right=0;bottom=0;" vertex="1" parent="yfldKkA-49J0g9vqTXsP-66">
          <mxGeometry y="60" width="180" height="30" as="geometry" />
        </mxCell>
        <mxCell id="yfldKkA-49J0g9vqTXsP-71" value="" style="shape=partialRectangle;connectable=0;fillColor=none;top=0;left=0;bottom=0;right=0;editable=1;overflow=hidden;whiteSpace=wrap;html=1;" vertex="1" parent="yfldKkA-49J0g9vqTXsP-70">
          <mxGeometry width="30" height="30" as="geometry">
            <mxRectangle width="30" height="30" as="alternateBounds" />
          </mxGeometry>
        </mxCell>
        <mxCell id="yfldKkA-49J0g9vqTXsP-72" value="name" style="shape=partialRectangle;connectable=0;fillColor=none;top=0;left=0;bottom=0;right=0;align=left;spacingLeft=6;overflow=hidden;whiteSpace=wrap;html=1;" vertex="1" parent="yfldKkA-49J0g9vqTXsP-70">
          <mxGeometry x="30" width="150" height="30" as="geometry">
            <mxRectangle width="150" height="30" as="alternateBounds" />
          </mxGeometry>
        </mxCell>
        <mxCell id="yfldKkA-49J0g9vqTXsP-73" value="" style="shape=tableRow;horizontal=0;startSize=0;swimlaneHead=0;swimlaneBody=0;fillColor=none;collapsible=0;dropTarget=0;points=[[0,0.5],[1,0.5]];portConstraint=eastwest;top=0;left=0;right=0;bottom=0;" vertex="1" parent="yfldKkA-49J0g9vqTXsP-66">
          <mxGeometry y="90" width="180" height="30" as="geometry" />
        </mxCell>
        <mxCell id="yfldKkA-49J0g9vqTXsP-74" value="" style="shape=partialRectangle;connectable=0;fillColor=none;top=0;left=0;bottom=0;right=0;editable=1;overflow=hidden;whiteSpace=wrap;html=1;" vertex="1" parent="yfldKkA-49J0g9vqTXsP-73">
          <mxGeometry width="30" height="30" as="geometry">
            <mxRectangle width="30" height="30" as="alternateBounds" />
          </mxGeometry>
        </mxCell>
        <mxCell id="yfldKkA-49J0g9vqTXsP-75" value="email" style="shape=partialRectangle;connectable=0;fillColor=none;top=0;left=0;bottom=0;right=0;align=left;spacingLeft=6;overflow=hidden;whiteSpace=wrap;html=1;" vertex="1" parent="yfldKkA-49J0g9vqTXsP-73">
          <mxGeometry x="30" width="150" height="30" as="geometry">
            <mxRectangle width="150" height="30" as="alternateBounds" />
          </mxGeometry>
        </mxCell>
        <mxCell id="yfldKkA-49J0g9vqTXsP-79" value="" style="endArrow=none;html=1;rounded=0;exitX=1;exitY=0.5;exitDx=0;exitDy=0;entryX=-0.002;entryY=0.887;entryDx=0;entryDy=0;entryPerimeter=0;" edge="1" parent="1" source="yfldKkA-49J0g9vqTXsP-5" target="yfldKkA-49J0g9vqTXsP-18">
          <mxGeometry relative="1" as="geometry">
            <mxPoint x="344" y="242" as="sourcePoint" />
            <mxPoint x="504" y="242" as="targetPoint" />
          </mxGeometry>
        </mxCell>
        <mxCell id="yfldKkA-49J0g9vqTXsP-80" value="" style="triangle;whiteSpace=wrap;html=1;" vertex="1" parent="1">
          <mxGeometry x="338" y="98" width="18" height="26" as="geometry" />
        </mxCell>
        <mxCell id="yfldKkA-49J0g9vqTXsP-81" value="works" style="text;html=1;strokeColor=none;fillColor=none;align=center;verticalAlign=middle;whiteSpace=wrap;rounded=0;" vertex="1" parent="1">
          <mxGeometry x="310" y="73" width="60" height="30" as="geometry" />
        </mxCell>
        <mxCell id="yfldKkA-49J0g9vqTXsP-82" value="1..1" style="text;html=1;strokeColor=none;fillColor=none;align=center;verticalAlign=middle;whiteSpace=wrap;rounded=0;" vertex="1" parent="1">
          <mxGeometry x="398" y="89" width="60" height="30" as="geometry" />
        </mxCell>
        <mxCell id="yfldKkA-49J0g9vqTXsP-83" value="1..*" style="text;html=1;strokeColor=none;fillColor=none;align=center;verticalAlign=middle;whiteSpace=wrap;rounded=0;" vertex="1" parent="1">
          <mxGeometry x="231" y="81" width="60" height="30" as="geometry" />
        </mxCell>
        <mxCell id="yfldKkA-49J0g9vqTXsP-84" value="" style="endArrow=none;html=1;rounded=0;exitX=1;exitY=0.5;exitDx=0;exitDy=0;entryX=0.419;entryY=0.007;entryDx=0;entryDy=0;entryPerimeter=0;" edge="1" parent="1" source="yfldKkA-49J0g9vqTXsP-85" target="yfldKkA-49J0g9vqTXsP-27">
          <mxGeometry relative="1" as="geometry">
            <mxPoint x="344" y="242" as="sourcePoint" />
            <mxPoint x="504" y="242" as="targetPoint" />
          </mxGeometry>
        </mxCell>
        <mxCell id="yfldKkA-49J0g9vqTXsP-86" value="" style="endArrow=none;html=1;rounded=0;exitX=0.476;exitY=1;exitDx=0;exitDy=0;exitPerimeter=0;entryX=0;entryY=0.5;entryDx=0;entryDy=0;" edge="1" parent="1" source="yfldKkA-49J0g9vqTXsP-8" target="yfldKkA-49J0g9vqTXsP-85">
          <mxGeometry relative="1" as="geometry">
            <mxPoint x="152" y="154" as="sourcePoint" />
            <mxPoint x="152" y="246" as="targetPoint" />
          </mxGeometry>
        </mxCell>
        <mxCell id="yfldKkA-49J0g9vqTXsP-85" value="" style="triangle;whiteSpace=wrap;html=1;direction=south;" vertex="1" parent="1">
          <mxGeometry x="139" y="191" width="25" height="17" as="geometry" />
        </mxCell>
        <mxCell id="yfldKkA-49J0g9vqTXsP-88" value="teaches" style="text;html=1;strokeColor=none;fillColor=none;align=center;verticalAlign=middle;whiteSpace=wrap;rounded=0;" vertex="1" parent="1">
          <mxGeometry x="164" y="187" width="60" height="30" as="geometry" />
        </mxCell>
        <mxCell id="yfldKkA-49J0g9vqTXsP-89" value="1..*" style="text;html=1;strokeColor=none;fillColor=none;align=center;verticalAlign=middle;whiteSpace=wrap;rounded=0;" vertex="1" parent="1">
          <mxGeometry x="104" y="219" width="60" height="30" as="geometry" />
        </mxCell>
        <mxCell id="yfldKkA-49J0g9vqTXsP-90" value="1..*" style="text;html=1;strokeColor=none;fillColor=none;align=center;verticalAlign=middle;whiteSpace=wrap;rounded=0;" vertex="1" parent="1">
          <mxGeometry x="109" y="154" width="60" height="30" as="geometry" />
        </mxCell>
        <mxCell id="yfldKkA-49J0g9vqTXsP-91" value="" style="endArrow=none;html=1;rounded=0;exitX=0.473;exitY=1.073;exitDx=0;exitDy=0;exitPerimeter=0;" edge="1" parent="1" source="yfldKkA-49J0g9vqTXsP-24">
          <mxGeometry relative="1" as="geometry">
            <mxPoint x="342" y="382" as="sourcePoint" />
            <mxPoint x="533" y="302" as="targetPoint" />
          </mxGeometry>
        </mxCell>
        <mxCell id="yfldKkA-49J0g9vqTXsP-92" value="" style="endArrow=none;html=1;rounded=0;entryX=0.983;entryY=-0.02;entryDx=0;entryDy=0;entryPerimeter=0;" edge="1" parent="1" source="yfldKkA-49J0g9vqTXsP-93" target="yfldKkA-49J0g9vqTXsP-31">
          <mxGeometry relative="1" as="geometry">
            <mxPoint x="532" y="301" as="sourcePoint" />
            <mxPoint x="502" y="386" as="targetPoint" />
          </mxGeometry>
        </mxCell>
        <mxCell id="yfldKkA-49J0g9vqTXsP-94" value="" style="endArrow=none;html=1;rounded=0;entryX=0;entryY=0.5;entryDx=0;entryDy=0;" edge="1" parent="1" target="yfldKkA-49J0g9vqTXsP-93">
          <mxGeometry relative="1" as="geometry">
            <mxPoint x="532" y="301" as="sourcePoint" />
            <mxPoint x="254" y="304" as="targetPoint" />
          </mxGeometry>
        </mxCell>
        <mxCell id="yfldKkA-49J0g9vqTXsP-93" value="" style="triangle;whiteSpace=wrap;html=1;direction=west;" vertex="1" parent="1">
          <mxGeometry x="384" y="289" width="14" height="26" as="geometry" />
        </mxCell>
        <mxCell id="yfldKkA-49J0g9vqTXsP-95" value="offers" style="text;html=1;strokeColor=none;fillColor=none;align=center;verticalAlign=middle;whiteSpace=wrap;rounded=0;" vertex="1" parent="1">
          <mxGeometry x="370" y="259" width="60" height="30" as="geometry" />
        </mxCell>
        <mxCell id="yfldKkA-49J0g9vqTXsP-96" value="1..*" style="text;html=1;strokeColor=none;fillColor=none;align=center;verticalAlign=middle;whiteSpace=wrap;rounded=0;" vertex="1" parent="1">
          <mxGeometry x="246" y="308" width="60" height="30" as="geometry" />
        </mxCell>
        <mxCell id="yfldKkA-49J0g9vqTXsP-97" value="1..1" style="text;html=1;strokeColor=none;fillColor=none;align=center;verticalAlign=middle;whiteSpace=wrap;rounded=0;" vertex="1" parent="1">
          <mxGeometry x="525" y="145" width="60" height="30" as="geometry" />
        </mxCell>
        <mxCell id="yfldKkA-49J0g9vqTXsP-98" value="" style="endArrow=none;html=1;rounded=0;exitX=1;exitY=0.5;exitDx=0;exitDy=0;entryX=0;entryY=0.5;entryDx=0;entryDy=0;" edge="1" parent="1" source="yfldKkA-49J0g9vqTXsP-99" target="yfldKkA-49J0g9vqTXsP-44">
          <mxGeometry relative="1" as="geometry">
            <mxPoint x="342" y="271" as="sourcePoint" />
            <mxPoint x="539" y="334" as="targetPoint" />
          </mxGeometry>
        </mxCell>
        <mxCell id="yfldKkA-49J0g9vqTXsP-100" value="" style="endArrow=none;html=1;rounded=0;exitX=1.019;exitY=0.793;exitDx=0;exitDy=0;exitPerimeter=0;entryX=0;entryY=0.5;entryDx=0;entryDy=0;" edge="1" parent="1" source="yfldKkA-49J0g9vqTXsP-34" target="yfldKkA-49J0g9vqTXsP-99">
          <mxGeometry relative="1" as="geometry">
            <mxPoint x="260" y="359" as="sourcePoint" />
            <mxPoint x="569" y="357" as="targetPoint" />
          </mxGeometry>
        </mxCell>
        <mxCell id="yfldKkA-49J0g9vqTXsP-99" value="" style="triangle;whiteSpace=wrap;html=1;" vertex="1" parent="1">
          <mxGeometry x="401" y="342" width="19" height="32" as="geometry" />
        </mxCell>
        <mxCell id="yfldKkA-49J0g9vqTXsP-101" value="has" style="text;html=1;strokeColor=none;fillColor=none;align=center;verticalAlign=middle;whiteSpace=wrap;rounded=0;" vertex="1" parent="1">
          <mxGeometry x="384" y="378" width="60" height="30" as="geometry" />
        </mxCell>
        <mxCell id="yfldKkA-49J0g9vqTXsP-102" value="1..*" style="text;html=1;strokeColor=none;fillColor=none;align=center;verticalAlign=middle;whiteSpace=wrap;rounded=0;" vertex="1" parent="1">
          <mxGeometry x="518" y="359" width="60" height="30" as="geometry" />
        </mxCell>
        <mxCell id="yfldKkA-49J0g9vqTXsP-103" value="1..1" style="text;html=1;strokeColor=none;fillColor=none;align=center;verticalAlign=middle;whiteSpace=wrap;rounded=0;" vertex="1" parent="1">
          <mxGeometry x="250" y="365" width="60" height="30" as="geometry" />
        </mxCell>
        <mxCell id="yfldKkA-49J0g9vqTXsP-105" value="" style="endArrow=none;html=1;rounded=0;exitX=0.717;exitY=1.027;exitDx=0;exitDy=0;exitPerimeter=0;" edge="1" parent="1" source="yfldKkA-49J0g9vqTXsP-47">
          <mxGeometry relative="1" as="geometry">
            <mxPoint x="342" y="390" as="sourcePoint" />
            <mxPoint x="695" y="652" as="targetPoint" />
          </mxGeometry>
        </mxCell>
        <mxCell id="yfldKkA-49J0g9vqTXsP-106" value="" style="endArrow=none;html=1;rounded=0;" edge="1" parent="1" source="yfldKkA-49J0g9vqTXsP-108">
          <mxGeometry relative="1" as="geometry">
            <mxPoint x="166" y="646" as="sourcePoint" />
            <mxPoint x="692" y="648" as="targetPoint" />
          </mxGeometry>
        </mxCell>
        <mxCell id="yfldKkA-49J0g9vqTXsP-107" value="" style="endArrow=none;html=1;rounded=0;entryX=0.467;entryY=0.933;entryDx=0;entryDy=0;entryPerimeter=0;" edge="1" parent="1" target="yfldKkA-49J0g9vqTXsP-60">
          <mxGeometry relative="1" as="geometry">
            <mxPoint x="167" y="646" as="sourcePoint" />
            <mxPoint x="502" y="390" as="targetPoint" />
          </mxGeometry>
        </mxCell>
        <mxCell id="yfldKkA-49J0g9vqTXsP-109" value="" style="endArrow=none;html=1;rounded=0;" edge="1" parent="1" target="yfldKkA-49J0g9vqTXsP-108">
          <mxGeometry relative="1" as="geometry">
            <mxPoint x="166" y="646" as="sourcePoint" />
            <mxPoint x="692" y="648" as="targetPoint" />
          </mxGeometry>
        </mxCell>
        <mxCell id="yfldKkA-49J0g9vqTXsP-108" value="" style="triangle;whiteSpace=wrap;html=1;direction=west;" vertex="1" parent="1">
          <mxGeometry x="425" y="635" width="17" height="19" as="geometry" />
        </mxCell>
        <mxCell id="yfldKkA-49J0g9vqTXsP-110" value="assignedTo" style="text;html=1;strokeColor=none;fillColor=none;align=center;verticalAlign=middle;whiteSpace=wrap;rounded=0;" vertex="1" parent="1">
          <mxGeometry x="410" y="654" width="60" height="30" as="geometry" />
        </mxCell>
        <mxCell id="yfldKkA-49J0g9vqTXsP-111" value="1..1" style="text;html=1;strokeColor=none;fillColor=none;align=center;verticalAlign=middle;whiteSpace=wrap;rounded=0;" vertex="1" parent="1">
          <mxGeometry x="154" y="570" width="60" height="30" as="geometry" />
        </mxCell>
        <mxCell id="yfldKkA-49J0g9vqTXsP-112" value="0..*" style="text;html=1;strokeColor=none;fillColor=none;align=center;verticalAlign=middle;whiteSpace=wrap;rounded=0;" vertex="1" parent="1">
          <mxGeometry x="683" y="405" width="60" height="30" as="geometry" />
        </mxCell>
        <mxCell id="yfldKkA-49J0g9vqTXsP-113" value="" style="endArrow=none;html=1;rounded=0;exitX=1;exitY=0.5;exitDx=0;exitDy=0;" edge="1" parent="1" source="yfldKkA-49J0g9vqTXsP-70">
          <mxGeometry relative="1" as="geometry">
            <mxPoint x="342" y="477" as="sourcePoint" />
            <mxPoint x="636" y="546" as="targetPoint" />
          </mxGeometry>
        </mxCell>
        <mxCell id="yfldKkA-49J0g9vqTXsP-114" value="" style="endArrow=none;html=1;rounded=0;entryX=0.361;entryY=0.973;entryDx=0;entryDy=0;entryPerimeter=0;" edge="1" parent="1" source="yfldKkA-49J0g9vqTXsP-115" target="yfldKkA-49J0g9vqTXsP-47">
          <mxGeometry relative="1" as="geometry">
            <mxPoint x="633" y="545" as="sourcePoint" />
            <mxPoint x="502" y="477" as="targetPoint" />
          </mxGeometry>
        </mxCell>
        <mxCell id="yfldKkA-49J0g9vqTXsP-116" value="" style="endArrow=none;html=1;rounded=0;entryX=0;entryY=0.5;entryDx=0;entryDy=0;" edge="1" parent="1" target="yfldKkA-49J0g9vqTXsP-115">
          <mxGeometry relative="1" as="geometry">
            <mxPoint x="633" y="545" as="sourcePoint" />
            <mxPoint x="634" y="401" as="targetPoint" />
            <Array as="points" />
          </mxGeometry>
        </mxCell>
        <mxCell id="yfldKkA-49J0g9vqTXsP-115" value="" style="triangle;whiteSpace=wrap;html=1;direction=north;" vertex="1" parent="1">
          <mxGeometry x="620" y="485" width="25" height="22" as="geometry" />
        </mxCell>
        <mxCell id="yfldKkA-49J0g9vqTXsP-117" value="registered" style="text;html=1;strokeColor=none;fillColor=none;align=center;verticalAlign=middle;whiteSpace=wrap;rounded=0;" vertex="1" parent="1">
          <mxGeometry x="634" y="507" width="60" height="30" as="geometry" />
        </mxCell>
        <mxCell id="yfldKkA-49J0g9vqTXsP-118" value="0..6" style="text;html=1;strokeColor=none;fillColor=none;align=center;verticalAlign=middle;whiteSpace=wrap;rounded=0;" vertex="1" parent="1">
          <mxGeometry x="581" y="405" width="60" height="30" as="geometry" />
        </mxCell>
        <mxCell id="yfldKkA-49J0g9vqTXsP-119" value="1..*" style="text;html=1;strokeColor=none;fillColor=none;align=center;verticalAlign=middle;whiteSpace=wrap;rounded=0;" vertex="1" parent="1">
          <mxGeometry x="563" y="548" width="60" height="30" as="geometry" />
        </mxCell>
        <mxCell id="yfldKkA-49J0g9vqTXsP-121" value="Building" style="shape=table;startSize=30;container=1;collapsible=1;childLayout=tableLayout;fixedRows=1;rowLines=0;fontStyle=1;align=center;resizeLast=1;html=1;" vertex="1" parent="1">
          <mxGeometry x="665" y="111" width="180" height="90" as="geometry" />
        </mxCell>
        <mxCell id="yfldKkA-49J0g9vqTXsP-122" value="" style="shape=tableRow;horizontal=0;startSize=0;swimlaneHead=0;swimlaneBody=0;fillColor=none;collapsible=0;dropTarget=0;points=[[0,0.5],[1,0.5]];portConstraint=eastwest;top=0;left=0;right=0;bottom=1;" vertex="1" parent="yfldKkA-49J0g9vqTXsP-121">
          <mxGeometry y="30" width="180" height="30" as="geometry" />
        </mxCell>
        <mxCell id="yfldKkA-49J0g9vqTXsP-123" value="PK" style="shape=partialRectangle;connectable=0;fillColor=none;top=0;left=0;bottom=0;right=0;fontStyle=1;overflow=hidden;whiteSpace=wrap;html=1;" vertex="1" parent="yfldKkA-49J0g9vqTXsP-122">
          <mxGeometry width="30" height="30" as="geometry">
            <mxRectangle width="30" height="30" as="alternateBounds" />
          </mxGeometry>
        </mxCell>
        <mxCell id="yfldKkA-49J0g9vqTXsP-124" value="ID" style="shape=partialRectangle;connectable=0;fillColor=none;top=0;left=0;bottom=0;right=0;align=left;spacingLeft=6;fontStyle=5;overflow=hidden;whiteSpace=wrap;html=1;" vertex="1" parent="yfldKkA-49J0g9vqTXsP-122">
          <mxGeometry x="30" width="150" height="30" as="geometry">
            <mxRectangle width="150" height="30" as="alternateBounds" />
          </mxGeometry>
        </mxCell>
        <mxCell id="yfldKkA-49J0g9vqTXsP-125" value="" style="shape=tableRow;horizontal=0;startSize=0;swimlaneHead=0;swimlaneBody=0;fillColor=none;collapsible=0;dropTarget=0;points=[[0,0.5],[1,0.5]];portConstraint=eastwest;top=0;left=0;right=0;bottom=0;" vertex="1" parent="yfldKkA-49J0g9vqTXsP-121">
          <mxGeometry y="60" width="180" height="30" as="geometry" />
        </mxCell>
        <mxCell id="yfldKkA-49J0g9vqTXsP-126" value="" style="shape=partialRectangle;connectable=0;fillColor=none;top=0;left=0;bottom=0;right=0;editable=1;overflow=hidden;whiteSpace=wrap;html=1;" vertex="1" parent="yfldKkA-49J0g9vqTXsP-125">
          <mxGeometry width="30" height="30" as="geometry">
            <mxRectangle width="30" height="30" as="alternateBounds" />
          </mxGeometry>
        </mxCell>
        <mxCell id="yfldKkA-49J0g9vqTXsP-127" value="Name" style="shape=partialRectangle;connectable=0;fillColor=none;top=0;left=0;bottom=0;right=0;align=left;spacingLeft=6;overflow=hidden;whiteSpace=wrap;html=1;" vertex="1" parent="yfldKkA-49J0g9vqTXsP-125">
          <mxGeometry x="30" width="150" height="30" as="geometry">
            <mxRectangle width="150" height="30" as="alternateBounds" />
          </mxGeometry>
        </mxCell>
        <mxCell id="yfldKkA-49J0g9vqTXsP-134" value="" style="endArrow=none;html=1;rounded=0;exitX=1;exitY=0.5;exitDx=0;exitDy=0;" edge="1" parent="1" source="yfldKkA-49J0g9vqTXsP-136">
          <mxGeometry relative="1" as="geometry">
            <mxPoint x="273" y="211" as="sourcePoint" />
            <mxPoint x="751" y="68" as="targetPoint" />
          </mxGeometry>
        </mxCell>
        <mxCell id="yfldKkA-49J0g9vqTXsP-135" value="" style="endArrow=none;html=1;rounded=0;" edge="1" parent="1">
          <mxGeometry relative="1" as="geometry">
            <mxPoint x="748" y="107" as="sourcePoint" />
            <mxPoint x="751" y="70" as="targetPoint" />
          </mxGeometry>
        </mxCell>
        <mxCell id="yfldKkA-49J0g9vqTXsP-137" value="" style="endArrow=none;html=1;rounded=0;exitX=1;exitY=0.5;exitDx=0;exitDy=0;" edge="1" parent="1" source="yfldKkA-49J0g9vqTXsP-15" target="yfldKkA-49J0g9vqTXsP-136">
          <mxGeometry relative="1" as="geometry">
            <mxPoint x="628" y="70" as="sourcePoint" />
            <mxPoint x="751" y="68" as="targetPoint" />
          </mxGeometry>
        </mxCell>
        <mxCell id="yfldKkA-49J0g9vqTXsP-136" value="" style="triangle;whiteSpace=wrap;html=1;" vertex="1" parent="1">
          <mxGeometry x="686" y="58" width="17" height="23" as="geometry" />
        </mxCell>
        <mxCell id="yfldKkA-49J0g9vqTXsP-138" value="hasoffices" style="text;html=1;strokeColor=none;fillColor=none;align=center;verticalAlign=middle;whiteSpace=wrap;rounded=0;" vertex="1" parent="1">
          <mxGeometry x="670" y="28" width="60" height="30" as="geometry" />
        </mxCell>
        <mxCell id="yfldKkA-49J0g9vqTXsP-139" value="1..1" style="text;html=1;strokeColor=none;fillColor=none;align=center;verticalAlign=middle;whiteSpace=wrap;rounded=0;" vertex="1" parent="1">
          <mxGeometry x="743" y="77" width="60" height="30" as="geometry" />
        </mxCell>
        <mxCell id="yfldKkA-49J0g9vqTXsP-140" value="0..*" style="text;html=1;strokeColor=none;fillColor=none;align=center;verticalAlign=middle;whiteSpace=wrap;rounded=0;" vertex="1" parent="1">
          <mxGeometry x="613" y="68" width="60" height="30" as="geometry" />
        </mxCell>
        <mxCell id="yfldKkA-49J0g9vqTXsP-141" value="" style="endArrow=none;html=1;rounded=0;" edge="1" parent="1">
          <mxGeometry relative="1" as="geometry">
            <mxPoint x="122" y="568" as="sourcePoint" />
            <mxPoint x="120" y="736" as="targetPoint" />
          </mxGeometry>
        </mxCell>
        <mxCell id="yfldKkA-49J0g9vqTXsP-142" value="" style="endArrow=none;html=1;rounded=0;" edge="1" parent="1" source="yfldKkA-49J0g9vqTXsP-145">
          <mxGeometry relative="1" as="geometry">
            <mxPoint x="119" y="740" as="sourcePoint" />
            <mxPoint x="791" y="738" as="targetPoint" />
          </mxGeometry>
        </mxCell>
        <mxCell id="yfldKkA-49J0g9vqTXsP-143" value="" style="endArrow=none;html=1;rounded=0;exitX=0.726;exitY=1.007;exitDx=0;exitDy=0;exitPerimeter=0;" edge="1" parent="1" source="yfldKkA-49J0g9vqTXsP-125">
          <mxGeometry relative="1" as="geometry">
            <mxPoint x="234" y="611" as="sourcePoint" />
            <mxPoint x="792" y="735" as="targetPoint" />
          </mxGeometry>
        </mxCell>
        <mxCell id="yfldKkA-49J0g9vqTXsP-144" value="" style="endArrow=none;html=1;rounded=0;entryX=0.471;entryY=1.027;entryDx=0;entryDy=0;entryPerimeter=0;" edge="1" parent="1" target="yfldKkA-49J0g9vqTXsP-57">
          <mxGeometry relative="1" as="geometry">
            <mxPoint x="167" y="646" as="sourcePoint" />
            <mxPoint x="394" y="455" as="targetPoint" />
          </mxGeometry>
        </mxCell>
        <mxCell id="yfldKkA-49J0g9vqTXsP-146" value="" style="endArrow=none;html=1;rounded=0;" edge="1" parent="1" target="yfldKkA-49J0g9vqTXsP-145">
          <mxGeometry relative="1" as="geometry">
            <mxPoint x="119" y="740" as="sourcePoint" />
            <mxPoint x="791" y="738" as="targetPoint" />
          </mxGeometry>
        </mxCell>
        <mxCell id="yfldKkA-49J0g9vqTXsP-145" value="" style="triangle;whiteSpace=wrap;html=1;direction=west;" vertex="1" parent="1">
          <mxGeometry x="401" y="724" width="20" height="29" as="geometry" />
        </mxCell>
        <mxCell id="yfldKkA-49J0g9vqTXsP-147" value="has" style="text;html=1;strokeColor=none;fillColor=none;align=center;verticalAlign=middle;whiteSpace=wrap;rounded=0;" vertex="1" parent="1">
          <mxGeometry x="410" y="761" width="60" height="30" as="geometry" />
        </mxCell>
        <mxCell id="yfldKkA-49J0g9vqTXsP-148" value="0..*" style="text;html=1;strokeColor=none;fillColor=none;align=center;verticalAlign=middle;whiteSpace=wrap;rounded=0;" vertex="1" parent="1">
          <mxGeometry x="71" y="578" width="60" height="30" as="geometry" />
        </mxCell>
        <mxCell id="yfldKkA-49J0g9vqTXsP-149" value="1..1" style="text;html=1;strokeColor=none;fillColor=none;align=center;verticalAlign=middle;whiteSpace=wrap;rounded=0;" vertex="1" parent="1">
          <mxGeometry x="737" y="210" width="60" height="30" as="geometry" />
        </mxCell>
        <mxCell id="a9zHSLTlbsmHQqf4UZaK-1" value="" style="endArrow=none;html=1;rounded=0;exitX=0.46;exitY=0.953;exitDx=0;exitDy=0;exitPerimeter=0;" edge="1" parent="1" source="yfldKkA-49J0g9vqTXsP-21">
          <mxGeometry relative="1" as="geometry">
            <mxPoint x="234" y="270" as="sourcePoint" />
            <mxPoint x="532" y="300" as="targetPoint" />
          </mxGeometry>
        </mxCell>
      </root>
    </mxGraphModel>
  </diagram>
</mxfile>
